<svg version="1.1" id="Layer_1" xmlns="http://www.w3.org/2000/svg" xmlns:xlink="http://www.w3.org/1999/xlink" x="0px" y="0px"
	 width="100%" viewBox="0 0 2560 2560" enable-background="new 0 0 2560 2560" xml:space="preserve">
<path fill="#000000" opacity="1.000000" stroke="none" 
	d="
M1414.000000,2562.000000 
	C942.666687,2562.000000 472.333344,2562.000000 2.000000,2562.000000 
	C2.000000,1708.666626 2.000000,855.333313 2.000000,2.000000 
	C855.333313,2.000000 1708.666626,2.000000 2562.000000,2.000000 
	C2562.000000,855.333313 2562.000000,1708.666626 2562.000000,2562.000000 
	C2179.666748,2562.000000 1797.333374,2562.000000 1414.000000,2562.000000 
M1189.311035,744.735657 
	C1190.829224,743.208679 1192.087158,741.171753 1193.909912,740.241882 
	C1202.395142,735.913025 1208.071045,729.048096 1211.365601,720.429138 
	C1218.212158,702.517639 1219.875122,684.271362 1213.731567,665.692383 
	C1205.340576,640.317017 1180.861938,622.115051 1154.044800,621.881775 
	C1130.718994,621.678833 1107.389893,621.769287 1084.062744,621.864258 
	C1071.482422,621.915527 1070.377686,623.134705 1070.162964,635.586609 
	C1070.145752,636.586182 1070.152222,637.586121 1070.152222,638.585876 
	C1070.151855,712.234131 1070.148804,785.882446 1070.163696,859.530701 
	C1070.164307,862.526733 1070.241333,865.529480 1070.450195,868.517334 
	C1070.782837,873.275085 1073.497925,875.892578 1078.198120,875.922791 
	C1095.523560,876.034363 1112.850342,876.046021 1130.176025,875.978943 
	C1135.502197,875.958374 1137.945679,872.843811 1138.034180,867.682983 
	C1138.085693,864.684631 1138.163696,861.686096 1138.164917,858.687683 
	C1138.176147,831.027893 1138.136230,803.368042 1138.217407,775.708496 
	C1138.228516,771.937500 1138.823730,768.168213 1139.170654,764.142395 
	C1144.837646,765.099976 1145.419312,768.585999 1145.851196,771.775024 
	C1146.697998,778.028870 1147.600830,784.325073 1147.717285,790.617920 
	C1148.006958,806.275635 1147.472534,821.954529 1147.999023,837.600403 
	C1148.702759,858.512146 1161.339966,874.568848 1179.587891,876.947083 
	C1187.657715,877.998718 1196.278931,877.339417 1204.300049,875.721802 
	C1221.363281,872.280823 1229.740112,859.925110 1233.601685,843.913330 
	C1234.300293,841.016602 1234.197266,837.932800 1234.809448,835.007568 
	C1235.957275,829.522217 1234.478760,824.970947 1229.959961,821.804260 
	C1224.112915,817.706787 1222.516235,811.828430 1222.302856,805.283020 
	C1222.096558,798.956726 1222.283203,792.614563 1221.972290,786.295349 
	C1221.425903,775.186401 1217.599976,765.207458 1209.027222,758.017700 
	C1203.255249,753.176941 1196.339844,749.699646 1189.311035,744.735657 
M1978.165527,836.997803 
	C1978.183594,846.325806 1978.019775,855.658752 1978.271118,864.980469 
	C1978.521484,874.258911 1980.202026,875.936279 1989.657593,876.085266 
	C2003.313232,876.300598 2016.974609,876.200745 2030.633301,876.164673 
	C2045.770142,876.124634 2046.154541,875.740051 2046.173218,860.274719 
	C2046.207520,831.957520 2046.129028,803.640076 2046.257568,775.323425 
	C2046.274414,771.613037 2044.955811,767.333618 2049.578369,763.506531 
	C2051.010986,766.132568 2052.809570,768.170471 2053.242676,770.466125 
	C2054.409668,776.653564 2055.553467,782.937927 2055.698730,789.207092 
	C2056.053955,804.523743 2055.600830,819.858398 2055.906738,835.177124 
	C2056.485596,864.154541 2075.632080,880.785156 2104.264160,877.511414 
	C2127.599121,874.843323 2143.248535,856.277954 2142.166748,832.741272 
	C2141.956787,828.169495 2140.994385,824.213440 2136.955811,821.499878 
	C2131.340088,817.726562 2130.023926,812.118225 2130.173096,805.776184 
	C2130.298584,800.451843 2130.197266,795.116394 2130.020996,789.791748 
	C2129.361572,769.855408 2119.998535,755.760620 2101.687500,747.629761 
	C2099.826660,746.803467 2098.281982,745.265198 2095.821533,743.508240 
	C2117.843994,733.699341 2123.538330,715.681091 2124.189453,694.861023 
	C2124.272705,692.198425 2124.215820,689.531067 2124.206543,686.865967 
	C2124.072266,649.076477 2097.119873,621.949158 2059.524902,621.840393 
	C2038.203857,621.778687 2016.882568,621.806763 1995.561401,621.832642 
	C1978.468140,621.853394 1978.180542,622.116821 1978.174927,639.110229 
	C1978.153687,704.406372 1978.166260,769.702515 1978.165527,836.997803 
M657.696350,790.133667 
	C657.738220,814.126648 657.737671,838.119873 657.838745,862.112610 
	C657.894348,875.311951 658.713257,876.080933 672.223328,876.157959 
	C683.886475,876.224426 695.550354,876.202332 707.213806,876.167786 
	C723.522522,876.119507 723.926697,875.736389 723.930786,859.244385 
	C723.948914,785.930786 723.939026,712.617249 723.935608,639.303650 
	C723.935486,636.971130 723.989319,634.633179 723.854675,632.307129 
	C723.374329,624.009521 721.890564,622.297607 713.757324,621.969971 
	C706.104309,621.661804 698.431213,621.837463 690.766907,621.829346 
	C683.435608,621.821533 676.100342,621.702515 668.774109,621.902161 
	C659.643372,622.150879 658.312134,623.518616 657.884033,632.305115 
	C657.754395,634.965454 657.819275,637.635864 657.818420,640.301697 
	C657.812195,660.629578 657.832825,680.957458 657.786255,701.285217 
	C657.779419,704.273804 657.981750,707.427917 657.099060,710.189575 
	C656.543030,711.929077 654.323242,713.741943 652.505188,714.225098 
	C651.555359,714.477539 649.047363,712.128113 648.671875,710.602173 
	C647.889587,707.424072 647.874512,704.012634 647.864990,700.696106 
	C647.801758,678.702148 647.894348,656.707703 647.788452,634.714111 
	C647.732605,623.121643 646.583069,621.976562 635.323059,621.865784 
	C622.994202,621.744446 610.663269,621.807556 598.333313,621.831970 
	C582.331238,621.863647 582.175415,621.988586 582.171265,638.052185 
	C582.152283,711.699036 582.160461,785.345825 582.172668,858.992676 
	C582.173157,861.989990 582.218933,864.993225 582.407898,867.983276 
	C582.733337,873.133850 585.514526,875.862793 590.724304,875.994263 
	C593.721741,876.069824 596.719788,876.164856 599.717651,876.167542 
	C612.047607,876.178650 624.379578,876.289612 636.706909,876.105408 
	C645.970459,875.966980 647.309021,874.579102 647.758972,865.890320 
	C647.896667,863.230713 647.826843,860.559631 647.827454,857.893799 
	C647.832397,837.899170 647.821289,817.904602 647.842712,797.909973 
	C647.845947,794.913269 647.442627,791.757202 648.250549,788.971558 
	C648.872742,786.826599 651.100952,785.147522 652.615051,783.261292 
	C654.257080,784.996521 655.899170,786.731689 657.696350,790.133667 
M1826.182495,794.888306 
	C1825.668579,811.426941 1827.618896,827.565369 1835.451416,842.390503 
	C1850.157227,870.225037 1882.103271,883.561768 1914.893677,875.896179 
	C1945.861328,868.656738 1967.411377,842.990723 1967.954712,810.478088 
	C1968.639038,769.525330 1968.351318,728.550354 1967.995361,687.589172 
	C1967.848633,670.698914 1961.536133,655.753601 1950.291870,643.059326 
	C1933.086792,623.635803 1910.923950,617.369202 1886.118042,620.875793 
	C1863.117432,624.127197 1844.755859,635.251465 1834.637939,657.276733 
	C1829.002930,669.543701 1826.161499,682.460022 1826.177002,696.003052 
	C1826.213867,728.308411 1826.185303,760.613708 1826.182495,794.888306 
M302.011169,634.914368 
	C292.516968,643.083374 285.075806,652.668640 280.720184,664.583801 
	C274.942261,680.390076 271.897949,696.659363 271.845612,713.467957 
	C271.776093,735.788208 271.924408,758.109436 271.800385,780.429199 
	C271.714417,795.898987 273.932220,811.061829 278.630188,825.701721 
	C287.527130,853.426575 304.438293,872.935425 334.943787,876.962219 
	C342.156616,877.914307 349.644073,878.271057 356.853760,877.494995 
	C382.602448,874.723511 401.648895,862.149841 412.862946,838.197327 
	C417.893616,827.452087 420.403107,816.238403 421.916901,804.629883 
	C422.247772,802.092712 422.671570,798.413513 424.343384,797.409302 
	C430.868683,793.489868 430.114136,787.448120 430.156586,781.508789 
	C430.208984,774.180115 430.286377,766.847778 430.116882,759.522400 
	C429.894531,749.911438 428.513123,748.392639 419.080109,748.252197 
	C405.424225,748.048828 391.763336,748.161865 378.104614,748.176880 
	C371.776062,748.183777 365.445129,748.188416 359.119934,748.363159 
	C354.783264,748.482910 350.525940,750.030945 350.427734,754.833435 
	C350.151611,768.335632 347.417206,781.997375 352.458984,795.295715 
	C353.343750,797.629333 353.670288,800.626282 352.995544,802.951477 
	C352.489227,804.696106 350.132599,806.594604 348.277985,807.019287 
	C346.994598,807.313110 344.239227,805.527588 343.760468,804.120361 
	C342.609222,800.736450 341.949280,797.034058 341.906647,793.450439 
	C341.716400,777.461792 341.807251,761.469788 341.806335,745.479004 
	C341.805634,732.819641 341.711975,720.158752 341.892914,707.501892 
	C341.945862,703.799011 340.900787,699.326965 346.107361,697.121765 
	C351.192993,700.310547 349.569122,705.387085 349.740784,709.695862 
	C350.246338,722.388184 351.687958,724.106689 364.517120,723.729370 
	C379.812805,723.279541 395.103241,722.515259 410.380219,721.619019 
	C419.076660,721.108765 422.028015,718.416687 421.632629,709.785278 
	C420.714417,689.740051 418.405060,669.787537 408.379669,651.887817 
	C401.005310,638.721436 390.251648,628.322632 375.657532,624.064453 
	C350.281281,616.660461 325.580170,618.125671 302.011169,634.914368 
M1524.281006,831.308350 
	C1522.299316,841.775269 1520.016968,852.196533 1518.419556,862.721802 
	C1516.775269,873.555725 1518.964355,875.988342 1529.703247,876.119934 
	C1542.689819,876.279175 1555.680054,876.216431 1568.668335,876.158813 
	C1582.594116,876.096985 1583.553589,875.204224 1585.560059,861.157837 
	C1585.795288,859.510437 1585.884521,857.842468 1586.109619,856.193298 
	C1587.370117,846.960327 1588.471313,837.700562 1589.985474,828.508972 
	C1591.118896,821.630005 1593.007324,820.265015 1599.964233,819.939270 
	C1609.484497,819.493530 1612.477539,821.965088 1613.755493,831.557007 
	C1615.293823,843.103027 1616.612305,854.679688 1618.268066,866.208313 
	C1619.416504,874.203064 1621.181763,875.613281 1629.292725,876.096497 
	C1631.285034,876.215210 1633.287842,876.174194 1635.285889,876.172058 
	C1648.607300,876.157959 1661.932739,876.326721 1675.248779,876.047424 
	C1684.387817,875.855713 1686.261719,873.308167 1684.930908,864.120850 
	C1684.406372,860.500244 1683.603394,856.919617 1682.914307,853.323303 
	C1674.517334,809.509033 1666.114746,765.695862 1657.720825,721.881042 
	C1652.020142,692.124023 1646.415039,662.348328 1640.588257,632.616089 
	C1638.721069,623.088867 1637.435669,622.008606 1628.085083,621.917664 
	C1609.769775,621.739502 1591.450073,621.739929 1573.135132,621.937988 
	C1564.646851,622.029724 1563.399902,623.099854 1561.634277,631.303772 
	C1559.042603,643.344482 1556.699341,655.442261 1554.459229,667.554382 
	C1544.469727,721.569397 1534.554810,775.598206 1524.281006,831.308350 
M868.085327,722.969299 
	C866.651978,715.442688 865.208679,707.917969 863.787292,700.389099 
	C859.585388,678.132324 855.465576,655.859680 851.162048,633.622620 
	C849.244263,623.712952 847.743530,622.064819 839.325500,621.965637 
	C820.335571,621.741638 801.338867,621.743591 782.349365,621.991943 
	C774.746582,622.091431 773.351562,623.591370 771.837280,631.276978 
	C769.519165,643.042358 767.413025,654.849487 765.214294,666.638367 
	C753.732361,728.199585 742.244385,789.759583 730.778137,851.323669 
	C729.924316,855.907776 729.035278,860.498352 728.492981,865.124634 
	C727.525452,873.378235 729.277588,875.865417 737.234802,876.005676 
	C753.223083,876.287598 769.220154,876.042175 785.213379,876.088379 
	C790.822205,876.104614 793.885620,873.459106 794.586365,867.910889 
	C794.919678,865.272522 795.493408,862.665039 795.848328,860.028748 
	C797.225708,849.798645 798.319397,839.521606 800.057434,829.354187 
	C800.566406,826.376404 802.138367,822.488159 804.463928,821.107727 
	C813.149414,815.952454 822.527100,821.056641 823.947693,831.208252 
	C825.563110,842.752686 826.844666,854.346802 828.633667,865.863037 
	C829.952881,874.355286 831.854065,875.965149 840.467957,876.083130 
	C854.793396,876.279236 869.124878,876.273621 883.450989,876.110046 
	C894.768005,875.980896 896.978882,873.137939 894.841675,862.016052 
	C886.041687,816.221741 877.202148,770.435120 868.085327,722.969299 
M2147.947266,789.808777 
	C2148.499268,797.761780 2148.363037,805.834412 2149.722412,813.646912 
	C2155.452637,846.583191 2173.934082,872.898926 2213.578125,877.619995 
	C2240.120117,880.780823 2262.313721,871.702026 2278.747803,850.758606 
	C2290.399902,835.909119 2295.244629,817.832520 2295.609131,799.309631 
	C2296.114014,773.678711 2283.991699,753.252502 2264.952637,736.903137 
	C2257.652100,730.633850 2249.129150,725.800903 2241.706299,719.656921 
	C2235.855957,714.814331 2230.571777,709.198608 2225.555908,703.471130 
	C2222.777588,700.298523 2220.723633,696.226440 2224.742920,690.799377 
	C2226.938232,692.266357 2230.018799,693.169922 2230.772705,695.021240 
	C2234.854492,705.041687 2241.928223,707.306274 2251.676758,704.420776 
	C2253.527832,703.872925 2255.650635,704.233521 2257.648438,704.193909 
	C2266.306152,704.022156 2274.974609,704.069458 2283.618896,703.634460 
	C2293.540039,703.135315 2297.081787,699.374146 2295.559326,689.592957 
	C2294.289062,681.430969 2292.429688,673.115723 2289.240967,665.537537 
	C2270.375977,620.700867 2218.680420,609.849121 2184.892578,630.399170 
	C2172.348145,638.028748 2162.988037,648.448181 2156.810303,661.973206 
	C2145.545898,686.634644 2147.648926,710.397522 2160.430908,733.722534 
	C2167.628662,746.857117 2178.641113,756.496216 2189.866699,765.989258 
	C2199.012451,773.723511 2208.038086,781.613342 2216.830566,789.744019 
	C2219.437500,792.154907 2221.586670,795.388794 2223.030029,798.650635 
	C2225.001709,803.106445 2223.335938,807.832397 2219.951660,808.990540 
	C2215.743164,810.430603 2212.556152,808.399597 2210.895752,804.817078 
	C2208.529785,799.712463 2206.580566,794.376465 2204.904541,788.998657 
	C2202.057129,779.861572 2200.359375,778.044739 2190.892090,778.330261 
	C2179.593994,778.670959 2168.314453,779.660461 2157.031738,780.442749 
	C2152.247803,780.774475 2148.690186,782.714050 2147.947266,789.808777 
M1241.823608,813.000000 
	C1241.823975,824.659729 1241.813721,836.319519 1241.829102,847.979248 
	C1241.837524,854.308289 1241.660889,860.649048 1241.983398,866.963257 
	C1242.343994,874.021973 1244.008545,875.493774 1251.103760,876.061523 
	C1253.091797,876.220520 1255.098877,876.169800 1257.097168,876.170105 
	C1290.410400,876.175598 1323.723633,876.176880 1357.036865,876.166809 
	C1359.367798,876.166138 1361.699341,876.090698 1364.029419,876.012207 
	C1369.277466,875.835327 1372.056396,873.058777 1372.074585,867.856079 
	C1372.137085,849.869385 1372.143555,831.882263 1372.064331,813.895691 
	C1372.041016,808.596802 1368.995117,806.083008 1363.817261,805.980835 
	C1360.820190,805.921631 1357.822754,805.851746 1354.825317,805.843323 
	C1342.832764,805.809631 1330.836182,805.977539 1318.848877,805.718323 
	C1310.098633,805.529175 1308.579468,803.704529 1308.402466,794.850586 
	C1308.369141,793.188049 1308.459106,791.520447 1308.552734,789.858521 
	C1308.847778,784.612732 1311.706909,782.054565 1316.896484,781.967957 
	C1321.558838,781.890198 1326.231812,781.975525 1330.881104,781.684265 
	C1338.118896,781.230957 1339.898560,779.769958 1340.001221,772.702148 
	C1340.242798,756.050110 1340.253906,739.388550 1339.961548,722.737793 
	C1339.838135,715.707581 1338.070557,714.391541 1330.656738,713.944580 
	C1326.338257,713.684204 1321.907227,714.255127 1317.705566,713.481140 
	C1315.151001,713.010498 1311.723999,711.233215 1310.773682,709.109863 
	C1305.836304,698.077026 1311.098999,690.357178 1323.142944,690.173462 
	C1324.808350,690.148071 1326.474243,690.165527 1328.139893,690.161255 
	C1339.466064,690.131958 1350.797363,690.297852 1362.116455,690.000488 
	C1369.097046,689.817139 1371.343018,688.213013 1371.464355,682.214600 
	C1371.821655,664.570557 1371.832886,646.908997 1371.448120,629.265930 
	C1371.307861,622.840759 1368.470093,620.783203 1361.833862,620.163757 
	C1359.518677,619.947693 1357.174072,620.006836 1354.842896,620.006287 
	C1322.862183,619.998108 1290.881348,619.962646 1258.900757,620.018433 
	C1243.037231,620.046143 1241.844482,621.262024 1241.837036,637.104919 
	C1241.809814,695.069946 1241.823975,753.034973 1241.823608,813.000000 
M572.175720,860.734497 
	C572.175049,847.401184 572.213257,834.067749 572.163208,820.734619 
	C572.109497,806.429138 571.621826,805.919983 557.716492,805.854309 
	C544.050110,805.789795 530.382812,805.889099 516.717224,805.768005 
	C514.010498,805.744019 511.309753,805.045593 506.520752,804.359253 
	C510.321655,801.173279 512.298096,799.542419 514.246643,797.879028 
	C526.139465,787.726379 538.410156,777.976440 549.809204,767.296326 
	C561.765991,756.093567 569.726868,742.077515 572.297058,725.808167 
	C573.896057,715.686523 574.243042,705.252808 574.042236,694.980896 
	C573.184448,651.114563 536.953796,613.410522 480.712555,628.932068 
	C471.866272,631.373535 462.731781,637.306824 456.604370,644.185547 
	C440.328979,662.456299 434.529999,684.869019 436.394196,709.190857 
	C436.887573,715.628052 438.688110,717.288757 445.000153,717.994141 
	C450.621613,718.622253 456.254547,719.283020 461.899902,719.530701 
	C470.553864,719.910339 479.225342,720.164734 487.884674,720.065186 
	C495.481689,719.977844 496.286285,719.076782 498.288727,712.016541 
	C499.104248,709.141174 499.664703,706.098816 501.054016,703.515869 
	C501.911774,701.921204 504.113495,701.049438 506.437408,699.310059 
	C509.298370,708.278931 507.795685,715.478699 503.281006,721.438354 
	C496.478638,730.417847 489.433899,739.416870 481.278198,747.122681 
	C467.444580,760.193054 454.428101,773.909058 442.745300,788.900574 
	C438.349396,794.541504 435.685333,800.761292 435.776367,808.222717 
	C436.004089,826.886475 435.746307,845.555725 435.887238,864.221191 
	C435.965637,874.609680 437.281891,875.790894 447.291382,876.145447 
	C448.290375,876.180786 449.291168,876.170776 450.291138,876.170837 
	C485.957703,876.172424 521.624268,876.175659 557.290833,876.165955 
	C559.622986,876.165344 561.956421,876.095154 564.287109,876.002441 
	C569.004395,875.814880 571.739258,873.518005 571.962341,868.638550 
	C572.053650,866.641602 572.102539,864.642822 572.175720,860.734497 
M937.386780,649.543945 
	C936.058289,643.697998 934.899658,637.807007 933.361450,632.016724 
	C931.050232,623.316711 929.697998,622.050293 921.074951,621.939453 
	C904.752747,621.729614 888.424988,621.770752 872.102234,621.953613 
	C869.052185,621.987854 866.014954,623.173035 862.329834,623.964966 
	C863.372681,628.757568 863.919800,632.355652 864.943848,635.812439 
	C876.857971,676.031433 888.858887,716.224731 900.803101,756.434875 
	C905.073975,770.812927 908.788696,785.168762 908.335083,800.501099 
	C907.714539,821.471802 908.089783,842.475830 908.247742,863.464050 
	C908.331970,874.653564 909.786499,876.033142 921.153320,876.122986 
	C938.143555,876.257324 955.136536,876.264709 972.126587,876.117798 
	C982.803650,876.025513 984.092590,874.713379 984.169006,863.800842 
	C984.308899,843.811951 984.254272,823.821350 984.218079,803.831604 
	C984.191345,789.073792 986.267151,774.695129 990.720032,760.568970 
	C1003.937256,718.639160 1016.937378,676.640808 1029.965454,634.651550 
	C1033.182373,624.283203 1031.616699,622.031921 1020.748291,621.896484 
	C1006.091431,621.713745 991.429565,621.745728 976.771729,621.882507 
	C966.284485,621.980408 965.104370,622.989563 962.709045,633.427917 
	C959.058777,649.334961 955.590576,665.283630 951.980347,681.199890 
	C951.281128,684.282532 950.284546,687.297607 949.425171,690.343811 
	C948.637207,690.378540 947.849243,690.413269 947.061279,690.447998 
	C943.968506,677.351624 940.875732,664.255310 937.386780,649.543945 
M1664.967407,626.390015 
	C1664.750732,645.015137 1664.329346,663.641357 1664.427490,682.264832 
	C1664.462280,688.875122 1666.927002,691.055969 1673.712769,691.544250 
	C1680.010498,691.997375 1686.358032,691.745300 1692.683228,691.833801 
	C1705.239990,692.009583 1706.049927,692.811768 1706.148193,705.727600 
	C1706.219116,715.050964 1706.167847,724.375305 1706.167969,733.699219 
	C1706.168823,774.657898 1706.162476,815.616638 1706.171265,856.575317 
	C1706.175537,876.150879 1706.187988,876.156250 1725.237915,876.174744 
	C1736.559814,876.185730 1747.881714,876.192505 1759.203613,876.172546 
	C1776.857910,876.141418 1777.617676,875.414001 1777.629517,857.416931 
	C1777.661255,808.799316 1777.640381,760.181641 1777.645996,711.564026 
	C1777.646362,708.234253 1777.539307,704.895203 1777.744385,701.576660 
	C1778.223511,693.819031 1779.629150,692.297363 1787.356079,691.948608 
	C1794.004150,691.648499 1800.681152,691.993225 1807.329956,691.701477 
	C1815.916992,691.324707 1817.910889,689.447632 1818.036255,680.796448 
	C1818.267944,664.816040 1818.254028,648.828308 1818.062988,632.847046 
	C1817.950928,623.477722 1816.396973,621.928284 1806.722290,621.902771 
	C1763.099976,621.787842 1719.476929,621.783081 1675.855225,621.977539 
	C1672.484497,621.992615 1669.121948,623.855347 1664.967407,626.390015 
M1502.517700,876.153748 
	C1513.202271,875.113342 1513.998901,874.482727 1514.119873,864.354187 
	C1514.290894,850.033386 1514.214722,835.709106 1514.173584,821.386475 
	C1514.130249,806.283997 1513.710693,805.892639 1498.262817,805.844421 
	C1486.271851,805.807007 1474.278687,805.947388 1462.290161,805.770447 
	C1451.692383,805.614014 1450.465820,804.222778 1450.177856,793.383728 
	C1450.107178,790.720703 1450.144897,788.054626 1450.144653,785.389954 
	C1450.142822,761.407654 1450.146484,737.425354 1450.142700,713.443054 
	C1450.138428,686.796082 1450.216919,660.148621 1450.074951,633.502380 
	C1450.021118,623.429443 1448.524048,622.022461 1438.378906,621.887085 
	C1425.723755,621.718201 1413.064819,621.809326 1400.407593,621.832458 
	C1384.004883,621.862549 1383.859375,621.990784 1383.855957,638.741516 
	C1383.840576,712.353821 1383.848022,785.966125 1383.854614,859.578430 
	C1383.854858,862.242371 1383.762695,864.922302 1384.009277,867.567139 
	C1384.614746,874.066284 1386.047485,875.468323 1392.717041,876.024658 
	C1395.696655,876.273132 1398.708374,876.171204 1401.705444,876.171753 
	C1434.681152,876.177856 1467.656738,876.172791 1502.517700,876.153748 
M1868.026611,1054.440674 
	C1877.160156,1061.402710 1886.293701,1068.364746 1895.427124,1075.326782 
	C1896.054565,1074.913330 1896.681885,1074.500000 1897.309204,1074.086670 
	C1892.436646,1059.881226 1887.564087,1045.675659 1882.554688,1031.071167 
	C1895.059937,1022.374756 1907.239624,1013.904663 1920.649414,1004.579163 
	C1916.780640,1004.144775 1914.553345,1003.670166 1912.329102,1003.683228 
	C1902.025146,1003.743774 1891.719238,1003.841370 1881.419312,1004.120178 
	C1873.895874,1004.323975 1873.820801,1004.482666 1871.677734,997.407898 
	C1869.560913,990.419739 1867.709473,983.351013 1865.583008,976.365845 
	C1863.982056,971.106567 1862.130737,965.923523 1860.390869,960.706543 
	C1859.724976,960.710999 1859.059082,960.715454 1858.393188,960.719910 
	C1853.951294,975.075317 1849.509277,989.430786 1844.939087,1004.200806 
	C1829.566162,1003.772827 1814.812256,1003.051819 1797.822266,1004.296448 
	C1811.926147,1014.138428 1824.074707,1022.615967 1836.416504,1031.228271 
	C1831.213623,1046.083374 1826.212402,1060.362549 1821.211182,1074.641846 
	C1821.710205,1074.990845 1822.209229,1075.339722 1822.708252,1075.688721 
	C1834.799561,1066.595215 1846.890869,1057.501709 1859.256714,1048.201904 
	C1862.019897,1050.138794 1864.426514,1051.825684 1868.026611,1054.440674 
M465.339600,1003.635681 
	C460.423370,1003.635681 455.507172,1003.635681 450.590942,1003.635681 
	C450.367310,1004.306458 450.143707,1004.977234 449.920074,1005.647949 
	C462.028259,1014.067017 474.136444,1022.486084 486.454681,1031.051147 
	C481.267609,1045.868896 476.273407,1060.135620 471.279205,1074.402222 
	C471.828796,1074.802979 472.378357,1075.203735 472.927948,1075.604492 
	C485.021454,1066.498779 497.114990,1057.393066 509.527740,1048.046997 
	C521.839722,1057.344116 533.733032,1066.324951 545.626343,1075.305908 
	C546.196289,1074.821045 546.766235,1074.336182 547.336182,1073.851440 
	C542.492554,1059.863281 537.648865,1045.875122 532.600220,1031.295044 
	C545.065735,1022.541504 557.320007,1013.936340 569.574280,1005.331116 
	C569.363098,1004.867249 569.151855,1004.403442 568.940613,1003.939636 
	C554.067444,1003.939636 539.194214,1003.939636 523.970886,1003.939636 
	C518.287964,989.591125 516.019775,974.445801 509.118866,958.297180 
	C503.911499,975.129944 499.445831,989.565125 495.092987,1003.635681 
	C485.088867,1003.635681 476.137054,1003.635681 465.339600,1003.635681 
M2012.986084,1017.814453 
	C2016.799561,1020.485596 2020.608154,1023.163696 2024.427612,1025.826172 
	C2031.466187,1030.732422 2031.567505,1030.762695 2028.844360,1038.658081 
	C2025.484863,1048.398315 2021.891968,1058.057861 2018.516235,1067.792725 
	C2017.853638,1069.703247 2017.719849,1071.796997 2016.901978,1076.147217 
	C2030.602905,1065.799683 2042.431641,1056.866211 2054.591064,1047.682983 
	C2066.809814,1056.920898 2078.576904,1065.817261 2090.343994,1074.713501 
	C2090.936768,1074.284302 2091.529541,1073.854980 2092.122314,1073.425781 
	C2087.330566,1059.478271 2082.538818,1045.530762 2077.513672,1030.904053 
	C2089.718018,1022.451355 2101.596924,1014.223999 2115.033691,1004.917542 
	C2111.478760,1004.221924 2109.964844,1003.670898 2108.450684,1003.670654 
	C2098.471924,1003.668945 2088.487061,1003.592896 2078.516357,1003.918640 
	C2068.680420,1004.239990 2068.638916,1004.443176 2065.961914,995.354797 
	C2063.145020,985.791992 2060.489502,976.180847 2057.589600,966.643738 
	C2057.011230,964.741516 2055.647949,963.078003 2053.504883,959.283081 
	C2049.613770,972.644653 2046.468140,983.753235 2043.133301,994.804688 
	C2040.228760,1004.429321 2040.140747,1004.154785 2029.873901,1003.886108 
	C2018.699341,1003.593628 2007.511230,1003.819702 1996.329102,1003.819702 
	C1996.087524,1004.576599 1995.846069,1005.333557 1995.604492,1006.090454 
	C2000.999634,1009.733765 2006.394897,1013.377075 2012.986084,1017.814453 
M699.438904,973.934631 
	C696.418884,983.741455 693.398865,993.548340 690.213318,1003.892761 
	C675.363586,1004.028259 660.951599,1002.842285 646.264160,1006.090942 
	C657.937500,1014.121338 669.610840,1022.151794 681.700500,1030.468506 
	C676.549805,1045.288940 671.697937,1059.249512 666.846008,1073.210083 
	C667.468689,1073.698975 668.091309,1074.187988 668.713928,1074.677002 
	C680.753967,1065.726318 692.793945,1056.775513 705.026978,1047.681274 
	C717.343506,1056.986084 728.921204,1065.732666 740.498901,1074.479248 
	C741.042664,1074.100952 741.586426,1073.722656 742.130127,1073.344482 
	C737.325256,1059.401489 732.520325,1045.458618 727.534607,1030.990967 
	C739.954895,1022.389526 751.884521,1014.127930 765.525269,1004.681274 
	C760.918701,1004.168945 758.426147,1003.642151 755.937317,1003.659058 
	C746.282715,1003.724609 736.627991,1003.911133 726.975830,1004.153748 
	C719.256226,1004.347839 718.539246,1004.034363 716.336487,996.725037 
	C713.359802,986.847595 710.650391,976.889648 707.684021,967.008972 
	C707.087891,965.023254 705.854431,963.228821 703.839661,959.192017 
	C702.055481,965.059937 700.932861,968.751953 699.438904,973.934631 
M1241.954712,455.573486 
	C1243.330566,460.249023 1245.568359,464.864563 1245.898926,469.612885 
	C1246.544189,478.882629 1246.235718,488.228088 1246.110107,497.539337 
	C1245.995117,506.070984 1247.238403,514.916504 1239.025269,521.314636 
	C1236.724487,523.106873 1237.535645,527.094238 1240.905640,527.406311 
	C1247.126465,527.982361 1253.517334,527.995544 1259.702026,527.196106 
	C1263.252686,526.737122 1264.143188,523.142883 1262.021729,520.138855 
	C1253.431641,507.974579 1258.720703,494.861725 1259.089233,481.864471 
	C1262.261108,486.633545 1264.090820,491.738464 1266.027466,496.802460 
	C1269.351074,505.493073 1272.494507,514.265381 1276.199951,522.791992 
	C1278.278687,527.575439 1282.951904,528.888916 1288.947876,527.867310 
	C1294.152466,526.980530 1294.865601,523.192993 1295.183228,519.054565 
	C1295.360962,516.736694 1295.367676,514.402222 1295.371460,512.075134 
	C1295.394653,497.772461 1295.355103,483.469604 1295.421997,469.167206 
	C1295.450073,463.156342 1295.748291,457.511017 1301.059570,452.907959 
	C1305.032593,449.464783 1303.389038,445.303925 1298.023560,444.663910 
	C1292.783813,444.038940 1287.366699,444.047455 1282.115967,444.607788 
	C1276.809448,445.174072 1275.011597,449.406097 1278.815430,452.884216 
	C1286.924316,460.299042 1283.692749,469.003937 1282.708984,477.732056 
	C1280.018066,473.545807 1278.058594,469.124969 1276.414673,464.589752 
	C1268.404053,442.489563 1268.305298,442.395264 1245.130249,444.242889 
	C1244.798828,444.269318 1244.463257,444.250031 1244.133667,444.288025 
	C1236.661377,445.149414 1235.866333,447.641693 1241.954712,455.573486 
M1136.934692,509.432678 
	C1139.023315,493.426270 1134.341187,484.687042 1120.071777,478.264313 
	C1116.737671,476.763580 1113.241577,475.622864 1109.821777,474.311981 
	C1107.962646,473.599365 1105.981201,473.096893 1104.273560,472.118317 
	C1098.931274,469.057312 1097.217773,464.433685 1099.406738,459.584808 
	C1101.738403,454.419708 1107.039551,452.561157 1112.915161,455.585968 
	C1116.072754,457.211517 1118.720947,459.930664 1121.366577,462.404846 
	C1122.795410,463.740875 1123.565063,465.762451 1124.929321,467.190735 
	C1128.213013,470.628540 1132.459595,469.909668 1133.114136,465.421906 
	C1133.872437,460.223053 1133.631226,454.814514 1133.257935,449.536987 
	C1133.010376,446.035309 1130.147705,444.707916 1126.840088,444.455994 
	C1120.541382,443.976196 1114.250000,443.150177 1107.945557,443.040039 
	C1089.226929,442.712921 1077.593384,456.475433 1081.343140,474.288788 
	C1083.105347,482.660431 1087.993896,488.661407 1095.603027,492.495239 
	C1101.548706,495.491028 1107.669434,498.194092 1113.377319,501.590332 
	C1117.835083,504.242767 1119.041992,508.824310 1117.059814,512.738403 
	C1114.975220,516.854614 1111.208008,518.637634 1107.057861,517.312561 
	C1103.079712,516.042358 1099.117676,513.935547 1095.910767,511.277039 
	C1093.200928,509.030670 1091.814575,505.258698 1089.390381,502.569458 
	C1088.019897,501.049194 1085.414917,499.192108 1083.953979,499.598785 
	C1082.399902,500.031464 1080.685425,502.893921 1080.538940,504.809967 
	C1080.109497,510.433105 1080.179199,516.127991 1080.523926,521.766052 
	C1080.799561,526.271423 1083.779053,528.563538 1088.094238,527.215942 
	C1093.290405,525.593262 1097.815796,527.117004 1102.672974,528.467834 
	C1119.313110,533.095703 1130.213745,527.327820 1136.934692,509.432678 
M1318.094849,1023.116028 
	C1315.766113,1025.491089 1313.194702,1027.675781 1311.155884,1030.277954 
	C1305.788452,1037.128052 1303.558228,1045.055542 1304.485229,1053.677979 
	C1304.991455,1058.386475 1308.836914,1061.167480 1311.985107,1058.581665 
	C1318.973877,1052.841431 1324.843506,1055.966431 1331.290649,1058.906128 
	C1338.628418,1062.251831 1345.840576,1061.674561 1351.620483,1055.822754 
	C1357.511108,1049.858765 1358.301636,1042.195312 1356.246582,1034.397339 
	C1355.770874,1032.592529 1353.480835,1030.268066 1351.799805,1030.066650 
	C1350.201172,1029.875000 1347.647095,1031.751587 1346.656006,1033.404175 
	C1342.168579,1040.888184 1342.311279,1040.989746 1333.947876,1039.101685 
	C1330.870239,1038.406860 1327.811768,1037.627319 1324.744507,1036.886475 
	C1324.578735,1036.191406 1324.412842,1035.496460 1324.246948,1034.801392 
	C1329.241821,1031.918823 1334.192627,1028.956665 1339.240112,1026.169312 
	C1351.411377,1019.448303 1355.848877,1008.605835 1355.694458,995.367859 
	C1355.624878,989.396301 1353.027710,984.456177 1348.729370,980.382141 
	C1335.364258,967.714722 1312.491089,972.292969 1304.923950,989.041992 
	C1301.715698,996.142944 1302.863159,1002.749573 1306.806885,1008.986084 
	C1309.961670,1013.974976 1315.969238,1014.822815 1320.709595,1011.366028 
	C1325.744019,1007.694824 1325.609497,1002.976257 1320.759277,996.961243 
	C1319.266113,995.109497 1317.286255,991.172729 1317.908447,990.543701 
	C1320.018066,988.410706 1323.072388,986.442566 1325.987671,986.047119 
	C1330.997925,985.367371 1334.586792,988.824402 1335.528076,994.239441 
	C1336.559326,1000.173157 1334.933594,1005.552429 1330.964722,1009.999573 
	C1327.204346,1014.213013 1323.090942,1018.111389 1318.094849,1023.116028 
M1217.597656,982.609375 
	C1205.233398,1000.897705 1204.444092,1020.541504 1211.014526,1040.921631 
	C1213.923950,1049.945801 1219.456909,1056.727661 1228.963867,1059.537598 
	C1244.046875,1063.995483 1257.999878,1056.385010 1262.843262,1039.812988 
	C1267.311157,1024.525146 1267.590698,1008.841980 1262.231689,993.564636 
	C1255.017822,972.999023 1235.827759,967.799072 1217.597656,982.609375 
M1154.522949,1025.478027 
	C1167.287476,1018.765564 1170.180542,1007.155029 1169.505127,994.165649 
	C1169.163208,987.587646 1165.850098,982.162598 1160.296265,978.278748 
	C1149.047729,970.412842 1134.268433,971.580017 1124.513794,981.159790 
	C1117.915649,987.639832 1116.053223,1000.726379 1120.687134,1008.050598 
	C1124.072632,1013.401794 1129.746460,1014.939880 1134.347046,1011.753479 
	C1138.378052,1008.961609 1139.117310,1003.085693 1135.918335,998.402161 
	C1135.180054,997.321350 1133.942993,996.588440 1133.161377,995.528748 
	C1130.424561,991.817932 1131.214600,988.682129 1135.261597,986.773254 
	C1142.706909,983.261536 1150.301514,988.603455 1149.912109,997.330627 
	C1149.581665,1004.740662 1145.708374,1010.522095 1140.495361,1015.501892 
	C1135.919678,1019.872925 1131.054199,1023.976807 1126.800171,1028.639771 
	C1120.709351,1035.316162 1117.936890,1043.488159 1118.411133,1052.497803 
	C1118.745361,1058.847534 1122.559326,1061.386719 1127.707275,1057.890015 
	C1133.530762,1053.934326 1138.211670,1055.480469 1143.546509,1057.957886 
	C1146.220947,1059.199829 1149.161743,1060.330078 1152.053711,1060.544922 
	C1157.910278,1060.979614 1163.574097,1059.791870 1166.951416,1054.348877 
	C1171.173218,1047.544922 1172.335571,1039.961182 1170.226196,1032.271484 
	C1169.184570,1028.473511 1163.710938,1028.327637 1161.483765,1031.951294 
	C1159.965942,1034.420654 1159.179932,1037.339966 1157.964844,1040.307007 
	C1151.151611,1040.478027 1145.101440,1039.038452 1137.399414,1035.791382 
	C1143.716919,1031.984131 1148.502075,1029.100342 1154.522949,1025.478027 
M1420.820190,1022.122803 
	C1427.234009,1026.286621 1428.880981,1032.396362 1427.726440,1039.515015 
	C1426.808350,1045.177002 1422.759155,1048.251221 1417.190308,1047.795044 
	C1412.519653,1047.412598 1410.934326,1045.184204 1412.032471,1040.493530 
	C1412.634399,1037.922974 1413.685669,1035.385742 1413.825317,1032.795166 
	C1414.070557,1028.250610 1411.927734,1025.090942 1407.150513,1024.375366 
	C1402.866699,1023.733643 1399.119385,1024.721069 1396.958618,1028.844727 
	C1393.827515,1034.819824 1396.084839,1048.734375 1400.796265,1053.293579 
	C1410.035889,1062.234741 1427.966675,1063.549561 1438.954224,1056.091553 
	C1448.074341,1049.901123 1451.593628,1034.309937 1445.232788,1022.580200 
	C1442.087036,1016.779236 1442.629395,1012.791565 1445.200928,1007.124756 
	C1451.090820,994.145874 1446.317749,981.305237 1434.304565,975.935425 
	C1424.895630,971.729858 1415.324219,972.461426 1406.450806,977.459473 
	C1396.735962,982.931396 1392.388306,995.769836 1396.850464,1006.119507 
	C1397.925049,1008.612122 1401.344360,1010.814148 1404.137939,1011.666077 
	C1407.770386,1012.773682 1411.364136,1011.268921 1413.575073,1007.710876 
	C1415.826782,1004.087341 1415.167969,1000.716858 1412.554077,997.610779 
	C1410.889160,995.632446 1409.094238,993.763489 1407.398926,991.891174 
	C1409.296753,985.916260 1413.494995,984.527100 1418.472412,984.993835 
	C1422.949341,985.413818 1425.487793,988.439819 1426.789429,992.580933 
	C1428.984619,999.565002 1427.875610,1005.824097 1422.277222,1010.785339 
	C1418.926147,1013.755066 1416.970215,1016.769958 1420.820190,1022.122803 
M1460.912598,529.348022 
	C1464.574707,529.324585 1468.240723,529.403687 1471.898071,529.259155 
	C1484.327637,528.768005 1485.686401,527.397705 1485.819092,515.322083 
	C1485.855591,511.995300 1485.840820,508.658936 1485.628784,505.341064 
	C1485.432373,502.268250 1484.797852,498.642853 1480.963257,499.065552 
	C1479.213379,499.258453 1477.379761,502.262421 1476.328979,504.363861 
	C1474.865967,507.289185 1474.623901,510.889099 1472.924316,513.617859 
	C1469.933716,518.418945 1461.983521,519.380737 1460.456177,514.916687 
	C1458.405029,508.921204 1458.475830,502.060028 1458.430542,495.564941 
	C1458.397827,490.889069 1462.823486,490.634705 1466.285400,489.370422 
	C1468.061890,488.721619 1470.490356,486.182129 1470.327393,484.760437 
	C1470.083008,482.628510 1468.259399,479.905029 1466.335205,478.872772 
	C1458.255127,474.538483 1457.220459,473.105927 1457.995239,464.663849 
	C1458.349854,460.799957 1459.145264,457.229279 1463.595581,456.310608 
	C1468.106934,455.379364 1471.559204,457.460480 1473.494019,461.335754 
	C1474.950806,464.253418 1475.180054,467.780823 1476.616577,470.712982 
	C1477.493408,472.502594 1479.622192,473.678864 1481.188599,475.130615 
	C1482.606201,473.506866 1485.118164,471.965393 1485.247559,470.244812 
	C1485.744385,463.634003 1485.698486,456.956238 1485.412720,450.322479 
	C1485.243164,446.386261 1482.369385,444.450653 1478.609863,444.426239 
	C1464.965088,444.337524 1451.316650,444.276611 1437.677124,444.564941 
	C1435.769897,444.605255 1432.909790,446.283447 1432.318359,447.880310 
	C1431.792725,449.299408 1433.281250,452.471039 1434.796875,453.447784 
	C1439.063232,456.197327 1440.053955,460.037842 1440.053467,464.572815 
	C1440.052124,479.221558 1440.058594,493.870300 1440.065918,508.519043 
	C1440.067993,512.669067 1439.290894,516.279053 1435.450562,518.934204 
	C1433.821777,520.060486 1431.772705,523.250671 1432.298218,524.252869 
	C1433.323853,526.209045 1435.920898,528.316956 1438.055298,528.536621 
	C1444.984009,529.250000 1451.997559,529.138123 1460.912598,529.348022 
M1385.795410,525.077087 
	C1390.788208,521.343994 1394.132080,516.485352 1395.376831,510.364166 
	C1396.608765,504.305481 1394.968262,501.188416 1390.393677,500.248199 
	C1384.833374,499.105408 1381.801514,501.003754 1380.200928,506.709351 
	C1379.753052,508.305573 1379.674194,510.027222 1379.078369,511.555847 
	C1377.382202,515.907959 1374.488647,519.123413 1369.451660,518.756897 
	C1364.491333,518.395996 1361.923096,514.958496 1360.722900,510.414337 
	C1360.385742,509.138306 1360.140137,507.794617 1360.135254,506.480896 
	C1360.083130,492.508301 1360.044434,478.535278 1360.103149,464.562836 
	C1360.120972,460.341980 1361.224854,456.338318 1365.863159,455.139496 
	C1370.573730,453.922028 1373.573608,457.280731 1375.442871,460.744019 
	C1377.455811,464.473785 1378.469116,468.773163 1379.673706,472.895569 
	C1380.225708,474.784088 1380.157593,476.848541 1380.429688,478.825104 
	C1381.091187,483.630585 1384.089844,485.653168 1388.712158,485.639923 
	C1393.742310,485.625488 1395.919556,482.688660 1395.983887,478.044525 
	C1396.103882,469.397339 1396.318481,460.735748 1395.956299,452.102722 
	C1395.680908,445.536560 1393.880127,444.572052 1386.864136,445.045044 
	C1383.615845,445.264008 1380.203369,445.470978 1377.081299,444.749237 
	C1356.500977,439.991547 1340.655151,451.888245 1339.908325,473.128662 
	C1339.604492,481.767670 1339.776245,490.428040 1339.904785,499.076111 
	C1340.021729,506.942657 1342.108643,514.347900 1347.279175,520.339478 
	C1349.779541,523.236694 1353.135864,526.014771 1356.666382,527.282776 
	C1365.979858,530.627869 1375.512573,531.451111 1385.795410,525.077087 
M1185.279053,444.178619 
	C1183.286987,444.234375 1181.265991,444.093262 1179.307983,444.380920 
	C1172.062744,445.445496 1170.498169,448.652313 1175.289429,454.076874 
	C1179.209229,458.514709 1179.991333,463.469788 1180.054199,468.811859 
	C1180.183228,479.774506 1180.124878,490.739410 1180.132080,501.703400 
	C1180.136353,508.411346 1179.729858,514.762329 1174.591064,520.206543 
	C1171.234253,523.763000 1172.795166,527.262207 1177.783936,527.693848 
	C1184.374634,528.263977 1191.078613,528.297241 1197.674927,527.792419 
	C1203.280518,527.363403 1204.802734,523.994324 1201.107666,519.863403 
	C1196.906616,515.166931 1196.208862,509.916779 1196.209717,504.183533 
	C1196.211304,493.883911 1196.184204,483.584259 1196.196045,473.284668 
	C1196.204346,465.977600 1196.001831,458.895294 1201.939453,452.901276 
	C1205.446899,449.360382 1203.326050,445.377563 1198.035522,444.577637 
	C1194.451172,444.035645 1190.747681,444.281891 1185.279053,444.178619 
z"/>
<path fill="#312020" opacity="1.000000" stroke="none" 
	d="
M1189.623535,745.174072 
	C1196.339844,749.699646 1203.255249,753.176941 1209.027222,758.017700 
	C1217.599976,765.207458 1221.425903,775.186401 1221.972290,786.295349 
	C1222.283203,792.614563 1222.096558,798.956726 1222.302856,805.283020 
	C1222.516235,811.828430 1224.112915,817.706787 1229.959961,821.804260 
	C1234.478760,824.970947 1235.957275,829.522217 1234.809448,835.007568 
	C1234.197266,837.932800 1234.300293,841.016602 1233.601685,843.913330 
	C1229.740112,859.925110 1221.363281,872.280823 1204.300049,875.721802 
	C1196.278931,877.339417 1187.657715,877.998718 1179.587891,876.947083 
	C1161.339966,874.568848 1148.702759,858.512146 1147.999023,837.600403 
	C1147.472534,821.954529 1148.006958,806.275635 1147.717285,790.617920 
	C1147.600830,784.325073 1146.697998,778.028870 1145.851196,771.775024 
	C1145.419312,768.585999 1144.837646,765.099976 1139.170654,764.142395 
	C1138.823730,768.168213 1138.228516,771.937500 1138.217407,775.708496 
	C1138.136230,803.368042 1138.176147,831.027893 1138.164917,858.687683 
	C1138.163696,861.686096 1138.085693,864.684631 1138.034180,867.682983 
	C1137.945679,872.843811 1135.502197,875.958374 1130.176025,875.978943 
	C1112.850342,876.046021 1095.523560,876.034363 1078.198120,875.922791 
	C1073.497925,875.892578 1070.782837,873.275085 1070.450195,868.517334 
	C1070.241333,865.529480 1070.164307,862.526733 1070.163696,859.530701 
	C1070.148804,785.882446 1070.151855,712.234131 1070.152222,638.585876 
	C1070.152222,637.586121 1070.145752,636.586182 1070.162964,635.586609 
	C1070.377686,623.134705 1071.482422,621.915527 1084.062744,621.864258 
	C1107.389893,621.769287 1130.718994,621.678833 1154.044800,621.881775 
	C1180.861938,622.115051 1205.340576,640.317017 1213.731567,665.692383 
	C1219.875122,684.271362 1218.212158,702.517639 1211.365601,720.429138 
	C1208.071045,729.048096 1202.395142,735.913025 1193.909912,740.241882 
	C1192.087158,741.171753 1190.829224,743.208679 1189.623535,745.174072 
M1145.991577,703.816956 
	C1145.369263,700.690186 1145.488159,697.057129 1141.076660,696.462952 
	C1136.812134,704.311890 1136.941040,721.329773 1141.508057,727.947144 
	C1146.019531,725.221069 1147.012573,720.901794 1146.915649,716.195129 
	C1146.841431,712.586487 1146.386353,708.985596 1145.991577,703.816956 
z"/>
<path fill="#312020" opacity="1.000000" stroke="none" 
	d="
M1978.165894,835.998230 
	C1978.166260,769.702515 1978.153687,704.406372 1978.174927,639.110229 
	C1978.180542,622.116821 1978.468140,621.853394 1995.561401,621.832642 
	C2016.882568,621.806763 2038.203857,621.778687 2059.524902,621.840393 
	C2097.119873,621.949158 2124.072266,649.076477 2124.206543,686.865967 
	C2124.215820,689.531067 2124.272705,692.198425 2124.189453,694.861023 
	C2123.538330,715.681091 2117.843994,733.699341 2095.821533,743.508240 
	C2098.281982,745.265198 2099.826660,746.803467 2101.687500,747.629761 
	C2119.998535,755.760620 2129.361572,769.855408 2130.020996,789.791748 
	C2130.197266,795.116394 2130.298584,800.451843 2130.173096,805.776184 
	C2130.023926,812.118225 2131.340088,817.726562 2136.955811,821.499878 
	C2140.994385,824.213440 2141.956787,828.169495 2142.166748,832.741272 
	C2143.248535,856.277954 2127.599121,874.843323 2104.264160,877.511414 
	C2075.632080,880.785156 2056.485596,864.154541 2055.906738,835.177124 
	C2055.600830,819.858398 2056.053955,804.523743 2055.698730,789.207092 
	C2055.553467,782.937927 2054.409668,776.653564 2053.242676,770.466125 
	C2052.809570,768.170471 2051.010986,766.132568 2049.578369,763.506531 
	C2044.955811,767.333618 2046.274414,771.613037 2046.257568,775.323425 
	C2046.129028,803.640076 2046.207520,831.957520 2046.173218,860.274719 
	C2046.154541,875.740051 2045.770142,876.124634 2030.633301,876.164673 
	C2016.974609,876.200745 2003.313232,876.300598 1989.657593,876.085266 
	C1980.202026,875.936279 1978.521484,874.258911 1978.271118,864.980469 
	C1978.019775,855.658752 1978.183594,846.325806 1978.165894,835.998230 
M2048.698730,727.518555 
	C2050.339111,726.168945 2052.872314,725.129700 2053.467773,723.416809 
	C2056.267578,715.363708 2055.474609,707.186707 2052.640869,699.288330 
	C2052.166016,697.964661 2049.883301,697.289673 2047.042603,695.376892 
	C2046.098511,706.925049 2045.035522,716.872864 2048.698730,727.518555 
z"/>
<path fill="#312020" opacity="1.000000" stroke="none" 
	d="
M657.618774,789.300293 
	C655.899170,786.731689 654.257080,784.996521 652.614990,783.261230 
	C651.100952,785.147522 648.872742,786.826599 648.250549,788.971558 
	C647.442627,791.757202 647.845947,794.913269 647.842712,797.909973 
	C647.821289,817.904602 647.832397,837.899170 647.827454,857.893799 
	C647.826843,860.559631 647.896667,863.230713 647.758972,865.890320 
	C647.309021,874.579102 645.970459,875.966980 636.706909,876.105408 
	C624.379578,876.289612 612.047607,876.178650 599.717651,876.167542 
	C596.719788,876.164856 593.721741,876.069824 590.724304,875.994263 
	C585.514526,875.862793 582.733337,873.133850 582.407898,867.983276 
	C582.218933,864.993225 582.173157,861.989990 582.172668,858.992676 
	C582.160461,785.345825 582.152283,711.699036 582.171265,638.052185 
	C582.175415,621.988586 582.331238,621.863647 598.333313,621.831970 
	C610.663269,621.807556 622.994202,621.744446 635.323059,621.865784 
	C646.583069,621.976562 647.732605,623.121643 647.788452,634.714111 
	C647.894348,656.707703 647.801758,678.702148 647.864990,700.696106 
	C647.874512,704.012634 647.889587,707.424072 648.671875,710.602173 
	C649.047363,712.128113 651.555359,714.477539 652.505188,714.225098 
	C654.323242,713.741943 656.543030,711.929077 657.099060,710.189575 
	C657.981750,707.427917 657.779419,704.273804 657.786255,701.285217 
	C657.832825,680.957458 657.812195,660.629578 657.818420,640.301697 
	C657.819275,637.635864 657.754395,634.965454 657.884033,632.305115 
	C658.312134,623.518616 659.643372,622.150879 668.774109,621.902161 
	C676.100342,621.702515 683.435608,621.821533 690.766907,621.829346 
	C698.431213,621.837463 706.104309,621.661804 713.757324,621.969971 
	C721.890564,622.297607 723.374329,624.009521 723.854675,632.307129 
	C723.989319,634.633179 723.935486,636.971130 723.935608,639.303650 
	C723.939026,712.617249 723.948914,785.930786 723.930786,859.244385 
	C723.926697,875.736389 723.522522,876.119507 707.213806,876.167786 
	C695.550354,876.202332 683.886475,876.224426 672.223328,876.157959 
	C658.713257,876.080933 657.894348,875.311951 657.838745,862.112610 
	C657.737671,838.119873 657.738220,814.126648 657.618774,789.300293 
z"/>
<path fill="#312020" opacity="1.000000" stroke="none" 
	d="
M1826.182861,793.903687 
	C1826.185303,760.613708 1826.213867,728.308411 1826.177002,696.003052 
	C1826.161499,682.460022 1829.002930,669.543701 1834.637939,657.276733 
	C1844.755859,635.251465 1863.117432,624.127197 1886.118042,620.875793 
	C1910.923950,617.369202 1933.086792,623.635803 1950.291870,643.059326 
	C1961.536133,655.753601 1967.848633,670.698914 1967.995361,687.589172 
	C1968.351318,728.550354 1968.639038,769.525330 1967.954712,810.478088 
	C1967.411377,842.990723 1945.861328,868.656738 1914.893677,875.896179 
	C1882.103271,883.561768 1850.157227,870.225037 1835.451416,842.390503 
	C1827.618896,827.565369 1825.668579,811.426941 1826.182861,793.903687 
M1901.839478,766.997437 
	C1901.833740,746.392090 1901.899658,725.786316 1901.760498,705.181885 
	C1901.733521,701.179504 1902.850586,696.426331 1897.857666,693.951721 
	C1893.195923,696.179688 1894.048828,700.227722 1894.037109,703.635620 
	C1893.932129,733.878540 1893.959473,764.121948 1893.984253,794.365173 
	C1893.985840,796.348755 1893.896729,798.478394 1894.568237,800.270935 
	C1895.141113,801.800110 1896.748535,802.941650 1899.401978,805.971802 
	C1900.472046,800.626770 1901.606323,797.289795 1901.723145,793.917542 
	C1902.010864,785.618652 1901.830688,777.303589 1901.839478,766.997437 
z"/>
<path fill="#312020" opacity="1.000000" stroke="none" 
	d="
M302.569275,634.454102 
	C325.580170,618.125671 350.281281,616.660461 375.657532,624.064453 
	C390.251648,628.322632 401.005310,638.721436 408.379669,651.887817 
	C418.405060,669.787537 420.714417,689.740051 421.632629,709.785278 
	C422.028015,718.416687 419.076660,721.108765 410.380219,721.619019 
	C395.103241,722.515259 379.812805,723.279541 364.517120,723.729370 
	C351.687958,724.106689 350.246338,722.388184 349.740784,709.695862 
	C349.569122,705.387085 351.192993,700.310547 346.107361,697.121765 
	C340.900787,699.326965 341.945862,703.799011 341.892914,707.501892 
	C341.711975,720.158752 341.805634,732.819641 341.806335,745.479004 
	C341.807251,761.469788 341.716400,777.461792 341.906647,793.450439 
	C341.949280,797.034058 342.609222,800.736450 343.760468,804.120361 
	C344.239227,805.527588 346.994598,807.313110 348.277985,807.019287 
	C350.132599,806.594604 352.489227,804.696106 352.995544,802.951477 
	C353.670288,800.626282 353.343750,797.629333 352.458984,795.295715 
	C347.417206,781.997375 350.151611,768.335632 350.427734,754.833435 
	C350.525940,750.030945 354.783264,748.482910 359.119934,748.363159 
	C365.445129,748.188416 371.776062,748.183777 378.104614,748.176880 
	C391.763336,748.161865 405.424225,748.048828 419.080109,748.252197 
	C428.513123,748.392639 429.894531,749.911438 430.116882,759.522400 
	C430.286377,766.847778 430.208984,774.180115 430.156586,781.508789 
	C430.114136,787.448120 430.868683,793.489868 424.343384,797.409302 
	C422.671570,798.413513 422.247772,802.092712 421.916901,804.629883 
	C420.403107,816.238403 417.893616,827.452087 412.862946,838.197327 
	C401.648895,862.149841 382.602448,874.723511 356.853760,877.494995 
	C349.644073,878.271057 342.156616,877.914307 334.943787,876.962219 
	C304.438293,872.935425 287.527130,853.426575 278.630188,825.701721 
	C273.932220,811.061829 271.714417,795.898987 271.800385,780.429199 
	C271.924408,758.109436 271.776093,735.788208 271.845612,713.467957 
	C271.897949,696.659363 274.942261,680.390076 280.720184,664.583801 
	C285.075806,652.668640 292.516968,643.083374 302.569275,634.454102 
z"/>
<path fill="#312020" opacity="1.000000" stroke="none" 
	d="
M1524.447021,830.465210 
	C1534.554810,775.598206 1544.469727,721.569397 1554.459229,667.554382 
	C1556.699341,655.442261 1559.042603,643.344482 1561.634277,631.303772 
	C1563.399902,623.099854 1564.646851,622.029724 1573.135132,621.937988 
	C1591.450073,621.739929 1609.769775,621.739502 1628.085083,621.917664 
	C1637.435669,622.008606 1638.721069,623.088867 1640.588257,632.616089 
	C1646.415039,662.348328 1652.020142,692.124023 1657.720825,721.881042 
	C1666.114746,765.695862 1674.517334,809.509033 1682.914307,853.323303 
	C1683.603394,856.919617 1684.406372,860.500244 1684.930908,864.120850 
	C1686.261719,873.308167 1684.387817,875.855713 1675.248779,876.047424 
	C1661.932739,876.326721 1648.607300,876.157959 1635.285889,876.172058 
	C1633.287842,876.174194 1631.285034,876.215210 1629.292725,876.096497 
	C1621.181763,875.613281 1619.416504,874.203064 1618.268066,866.208313 
	C1616.612305,854.679688 1615.293823,843.103027 1613.755493,831.557007 
	C1612.477539,821.965088 1609.484497,819.493530 1599.964233,819.939270 
	C1593.007324,820.265015 1591.118896,821.630005 1589.985474,828.508972 
	C1588.471313,837.700562 1587.370117,846.960327 1586.109619,856.193298 
	C1585.884521,857.842468 1585.795288,859.510437 1585.560059,861.157837 
	C1583.553589,875.204224 1582.594116,876.096985 1568.668335,876.158813 
	C1555.680054,876.216431 1542.689819,876.279175 1529.703247,876.119934 
	C1518.964355,875.988342 1516.775269,873.555725 1518.419556,862.721802 
	C1520.016968,852.196533 1522.299316,841.775269 1524.447021,830.465210 
M1598.239258,766.006042 
	C1597.937500,768.954529 1597.664429,771.906372 1597.326660,774.850708 
	C1596.885132,778.700195 1595.248657,783.155640 1601.059814,784.333008 
	C1604.957886,785.122742 1606.504272,782.354675 1605.976807,774.770935 
	C1605.543457,768.541199 1604.660034,762.333923 1603.730347,756.153625 
	C1603.493652,754.580322 1602.323242,753.147522 1600.481934,749.429260 
	C1599.540527,756.119080 1598.953491,760.291138 1598.239258,766.006042 
z"/>
<path fill="#312020" opacity="1.000000" stroke="none" 
	d="
M868.231201,723.807495 
	C877.202148,770.435120 886.041687,816.221741 894.841675,862.016052 
	C896.978882,873.137939 894.768005,875.980896 883.450989,876.110046 
	C869.124878,876.273621 854.793396,876.279236 840.467957,876.083130 
	C831.854065,875.965149 829.952881,874.355286 828.633667,865.863037 
	C826.844666,854.346802 825.563110,842.752686 823.947693,831.208252 
	C822.527100,821.056641 813.149414,815.952454 804.463928,821.107727 
	C802.138367,822.488159 800.566406,826.376404 800.057434,829.354187 
	C798.319397,839.521606 797.225708,849.798645 795.848328,860.028748 
	C795.493408,862.665039 794.919678,865.272522 794.586365,867.910889 
	C793.885620,873.459106 790.822205,876.104614 785.213379,876.088379 
	C769.220154,876.042175 753.223083,876.287598 737.234802,876.005676 
	C729.277588,875.865417 727.525452,873.378235 728.492981,865.124634 
	C729.035278,860.498352 729.924316,855.907776 730.778137,851.323669 
	C742.244385,789.759583 753.732361,728.199585 765.214294,666.638367 
	C767.413025,654.849487 769.519165,643.042358 771.837280,631.276978 
	C773.351562,623.591370 774.746582,622.091431 782.349365,621.991943 
	C801.338867,621.743591 820.335571,621.741638 839.325500,621.965637 
	C847.743530,622.064819 849.244263,623.712952 851.162048,633.622620 
	C855.465576,655.859680 859.585388,678.132324 863.787292,700.389099 
	C865.208679,707.917969 866.651978,715.442688 868.231201,723.807495 
M809.565735,755.783142 
	C808.548157,763.323608 807.387878,770.848816 806.579224,778.411621 
	C806.227783,781.698486 807.584473,784.405396 811.432434,784.534912 
	C815.006226,784.655212 817.317139,782.696960 817.045715,779.127380 
	C816.333191,769.757263 815.746033,760.322815 812.104126,749.859314 
	C810.894653,752.339355 810.369995,753.415039 809.565735,755.783142 
z"/>
<path fill="#312020" opacity="1.000000" stroke="none" 
	d="
M2148.025879,788.930908 
	C2148.690186,782.714050 2152.247803,780.774475 2157.031738,780.442749 
	C2168.314453,779.660461 2179.593994,778.670959 2190.892090,778.330261 
	C2200.359375,778.044739 2202.057129,779.861572 2204.904541,788.998657 
	C2206.580566,794.376465 2208.529785,799.712463 2210.895752,804.817078 
	C2212.556152,808.399597 2215.743164,810.430603 2219.951660,808.990540 
	C2223.335938,807.832397 2225.001709,803.106445 2223.030029,798.650635 
	C2221.586670,795.388794 2219.437500,792.154907 2216.830566,789.744019 
	C2208.038086,781.613342 2199.012451,773.723511 2189.866699,765.989258 
	C2178.641113,756.496216 2167.628662,746.857117 2160.430908,733.722534 
	C2147.648926,710.397522 2145.545898,686.634644 2156.810303,661.973206 
	C2162.988037,648.448181 2172.348145,638.028748 2184.892578,630.399170 
	C2218.680420,609.849121 2270.375977,620.700867 2289.240967,665.537537 
	C2292.429688,673.115723 2294.289062,681.430969 2295.559326,689.592957 
	C2297.081787,699.374146 2293.540039,703.135315 2283.618896,703.634460 
	C2274.974609,704.069458 2266.306152,704.022156 2257.648438,704.193909 
	C2255.650635,704.233521 2253.527832,703.872925 2251.676758,704.420776 
	C2241.928223,707.306274 2234.854492,705.041687 2230.772705,695.021240 
	C2230.018799,693.169922 2226.938232,692.266357 2224.742920,690.799377 
	C2220.723633,696.226440 2222.777588,700.298523 2225.555908,703.471130 
	C2230.571777,709.198608 2235.855957,714.814331 2241.706299,719.656921 
	C2249.129150,725.800903 2257.652100,730.633850 2264.952637,736.903137 
	C2283.991699,753.252502 2296.114014,773.678711 2295.609131,799.309631 
	C2295.244629,817.832520 2290.399902,835.909119 2278.747803,850.758606 
	C2262.313721,871.702026 2240.120117,880.780823 2213.578125,877.619995 
	C2173.934082,872.898926 2155.452637,846.583191 2149.722412,813.646912 
	C2148.363037,805.834412 2148.499268,797.761780 2148.025879,788.930908 
z"/>
<path fill="#312020" opacity="1.000000" stroke="none" 
	d="
M1241.823242,812.000000 
	C1241.823975,753.034973 1241.809814,695.069946 1241.837036,637.104919 
	C1241.844482,621.262024 1243.037231,620.046143 1258.900757,620.018433 
	C1290.881348,619.962646 1322.862183,619.998108 1354.842896,620.006287 
	C1357.174072,620.006836 1359.518677,619.947693 1361.833862,620.163757 
	C1368.470093,620.783203 1371.307861,622.840759 1371.448120,629.265930 
	C1371.832886,646.908997 1371.821655,664.570557 1371.464355,682.214600 
	C1371.343018,688.213013 1369.097046,689.817139 1362.116455,690.000488 
	C1350.797363,690.297852 1339.466064,690.131958 1328.139893,690.161255 
	C1326.474243,690.165527 1324.808350,690.148071 1323.142944,690.173462 
	C1311.098999,690.357178 1305.836304,698.077026 1310.773682,709.109863 
	C1311.723999,711.233215 1315.151001,713.010498 1317.705566,713.481140 
	C1321.907227,714.255127 1326.338257,713.684204 1330.656738,713.944580 
	C1338.070557,714.391541 1339.838135,715.707581 1339.961548,722.737793 
	C1340.253906,739.388550 1340.242798,756.050110 1340.001221,772.702148 
	C1339.898560,779.769958 1338.118896,781.230957 1330.881104,781.684265 
	C1326.231812,781.975525 1321.558838,781.890198 1316.896484,781.967957 
	C1311.706909,782.054565 1308.847778,784.612732 1308.552734,789.858521 
	C1308.459106,791.520447 1308.369141,793.188049 1308.402466,794.850586 
	C1308.579468,803.704529 1310.098633,805.529175 1318.848877,805.718323 
	C1330.836182,805.977539 1342.832764,805.809631 1354.825317,805.843323 
	C1357.822754,805.851746 1360.820190,805.921631 1363.817261,805.980835 
	C1368.995117,806.083008 1372.041016,808.596802 1372.064331,813.895691 
	C1372.143555,831.882263 1372.137085,849.869385 1372.074585,867.856079 
	C1372.056396,873.058777 1369.277466,875.835327 1364.029419,876.012207 
	C1361.699341,876.090698 1359.367798,876.166138 1357.036865,876.166809 
	C1323.723633,876.176880 1290.410400,876.175598 1257.097168,876.170105 
	C1255.098877,876.169800 1253.091797,876.220520 1251.103760,876.061523 
	C1244.008545,875.493774 1242.343994,874.021973 1241.983398,866.963257 
	C1241.660889,860.649048 1241.837524,854.308289 1241.829102,847.979248 
	C1241.813721,836.319519 1241.823975,824.659729 1241.823242,812.000000 
z"/>
<path fill="#312020" opacity="1.000000" stroke="none" 
	d="
M572.173218,861.689697 
	C572.102539,864.642822 572.053650,866.641602 571.962341,868.638550 
	C571.739258,873.518005 569.004395,875.814880 564.287109,876.002441 
	C561.956421,876.095154 559.622986,876.165344 557.290833,876.165955 
	C521.624268,876.175659 485.957703,876.172424 450.291138,876.170837 
	C449.291168,876.170776 448.290375,876.180786 447.291382,876.145447 
	C437.281891,875.790894 435.965637,874.609680 435.887238,864.221191 
	C435.746307,845.555725 436.004089,826.886475 435.776367,808.222717 
	C435.685333,800.761292 438.349396,794.541504 442.745300,788.900574 
	C454.428101,773.909058 467.444580,760.193054 481.278198,747.122681 
	C489.433899,739.416870 496.478638,730.417847 503.281006,721.438354 
	C507.795685,715.478699 509.298370,708.278931 506.437408,699.310059 
	C504.113495,701.049438 501.911774,701.921204 501.054016,703.515869 
	C499.664703,706.098816 499.104248,709.141174 498.288727,712.016541 
	C496.286285,719.076782 495.481689,719.977844 487.884674,720.065186 
	C479.225342,720.164734 470.553864,719.910339 461.899902,719.530701 
	C456.254547,719.283020 450.621613,718.622253 445.000153,717.994141 
	C438.688110,717.288757 436.887573,715.628052 436.394196,709.190857 
	C434.529999,684.869019 440.328979,662.456299 456.604370,644.185547 
	C462.731781,637.306824 471.866272,631.373535 480.712555,628.932068 
	C536.953796,613.410522 573.184448,651.114563 574.042236,694.980896 
	C574.243042,705.252808 573.896057,715.686523 572.297058,725.808167 
	C569.726868,742.077515 561.765991,756.093567 549.809204,767.296326 
	C538.410156,777.976440 526.139465,787.726379 514.246643,797.879028 
	C512.298096,799.542419 510.321655,801.173279 506.520752,804.359253 
	C511.309753,805.045593 514.010498,805.744019 516.717224,805.768005 
	C530.382812,805.889099 544.050110,805.789795 557.716492,805.854309 
	C571.621826,805.919983 572.109497,806.429138 572.163208,820.734619 
	C572.213257,834.067749 572.175049,847.401184 572.173218,861.689697 
z"/>
<path fill="#312020" opacity="1.000000" stroke="none" 
	d="
M937.584839,650.351440 
	C940.875732,664.255310 943.968506,677.351624 947.061279,690.447998 
	C947.849243,690.413269 948.637207,690.378540 949.425171,690.343811 
	C950.284546,687.297607 951.281128,684.282532 951.980347,681.199890 
	C955.590576,665.283630 959.058777,649.334961 962.709045,633.427917 
	C965.104370,622.989563 966.284485,621.980408 976.771729,621.882507 
	C991.429565,621.745728 1006.091431,621.713745 1020.748291,621.896484 
	C1031.616699,622.031921 1033.182373,624.283203 1029.965454,634.651550 
	C1016.937378,676.640808 1003.937256,718.639160 990.720032,760.568970 
	C986.267151,774.695129 984.191345,789.073792 984.218079,803.831604 
	C984.254272,823.821350 984.308899,843.811951 984.169006,863.800842 
	C984.092590,874.713379 982.803650,876.025513 972.126587,876.117798 
	C955.136536,876.264709 938.143555,876.257324 921.153320,876.122986 
	C909.786499,876.033142 908.331970,874.653564 908.247742,863.464050 
	C908.089783,842.475830 907.714539,821.471802 908.335083,800.501099 
	C908.788696,785.168762 905.073975,770.812927 900.803101,756.434875 
	C888.858887,716.224731 876.857971,676.031433 864.943848,635.812439 
	C863.919800,632.355652 863.372681,628.757568 862.329834,623.964966 
	C866.014954,623.173035 869.052185,621.987854 872.102234,621.953613 
	C888.424988,621.770752 904.752747,621.729614 921.074951,621.939453 
	C929.697998,622.050293 931.050232,623.316711 933.361450,632.016724 
	C934.899658,637.807007 936.058289,643.697998 937.584839,650.351440 
z"/>
<path fill="#312020" opacity="1.000000" stroke="none" 
	d="
M1665.361572,625.624634 
	C1669.121948,623.855347 1672.484497,621.992615 1675.855225,621.977539 
	C1719.476929,621.783081 1763.099976,621.787842 1806.722290,621.902771 
	C1816.396973,621.928284 1817.950928,623.477722 1818.062988,632.847046 
	C1818.254028,648.828308 1818.267944,664.816040 1818.036255,680.796448 
	C1817.910889,689.447632 1815.916992,691.324707 1807.329956,691.701477 
	C1800.681152,691.993225 1794.004150,691.648499 1787.356079,691.948608 
	C1779.629150,692.297363 1778.223511,693.819031 1777.744385,701.576660 
	C1777.539307,704.895203 1777.646362,708.234253 1777.645996,711.564026 
	C1777.640381,760.181641 1777.661255,808.799316 1777.629517,857.416931 
	C1777.617676,875.414001 1776.857910,876.141418 1759.203613,876.172546 
	C1747.881714,876.192505 1736.559814,876.185730 1725.237915,876.174744 
	C1706.187988,876.156250 1706.175537,876.150879 1706.171265,856.575317 
	C1706.162476,815.616638 1706.168823,774.657898 1706.167969,733.699219 
	C1706.167847,724.375305 1706.219116,715.050964 1706.148193,705.727600 
	C1706.049927,692.811768 1705.239990,692.009583 1692.683228,691.833801 
	C1686.358032,691.745300 1680.010498,691.997375 1673.712769,691.544250 
	C1666.927002,691.055969 1664.462280,688.875122 1664.427490,682.264832 
	C1664.329346,663.641357 1664.750732,645.015137 1665.361572,625.624634 
z"/>
<path fill="#312020" opacity="1.000000" stroke="none" 
	d="
M1501.575073,876.162231 
	C1467.656738,876.172791 1434.681152,876.177856 1401.705444,876.171753 
	C1398.708374,876.171204 1395.696655,876.273132 1392.717041,876.024658 
	C1386.047485,875.468323 1384.614746,874.066284 1384.009277,867.567139 
	C1383.762695,864.922302 1383.854858,862.242371 1383.854614,859.578430 
	C1383.848022,785.966125 1383.840576,712.353821 1383.855957,638.741516 
	C1383.859375,621.990784 1384.004883,621.862549 1400.407593,621.832458 
	C1413.064819,621.809326 1425.723755,621.718201 1438.378906,621.887085 
	C1448.524048,622.022461 1450.021118,623.429443 1450.074951,633.502380 
	C1450.216919,660.148621 1450.138428,686.796082 1450.142700,713.443054 
	C1450.146484,737.425354 1450.142822,761.407654 1450.144653,785.389954 
	C1450.144897,788.054626 1450.107178,790.720703 1450.177856,793.383728 
	C1450.465820,804.222778 1451.692383,805.614014 1462.290161,805.770447 
	C1474.278687,805.947388 1486.271851,805.807007 1498.262817,805.844421 
	C1513.710693,805.892639 1514.130249,806.283997 1514.173584,821.386475 
	C1514.214722,835.709106 1514.290894,850.033386 1514.119873,864.354187 
	C1513.998901,874.482727 1513.202271,875.113342 1501.575073,876.162231 
z"/>
<path fill="#D30101" opacity="1.000000" stroke="none" 
	d="
M1867.429932,1053.976685 
	C1864.426514,1051.825684 1862.019897,1050.138794 1859.256714,1048.201904 
	C1846.890869,1057.501709 1834.799561,1066.595215 1822.708252,1075.688721 
	C1822.209229,1075.339722 1821.710205,1074.990845 1821.211182,1074.641846 
	C1826.212402,1060.362549 1831.213623,1046.083374 1836.416504,1031.228271 
	C1824.074707,1022.615967 1811.926147,1014.138428 1797.822266,1004.296448 
	C1814.812256,1003.051819 1829.566162,1003.772827 1844.939087,1004.200806 
	C1849.509277,989.430786 1853.951294,975.075317 1858.393188,960.719910 
	C1859.059082,960.715454 1859.724976,960.710999 1860.390869,960.706543 
	C1862.130737,965.923523 1863.982056,971.106567 1865.583008,976.365845 
	C1867.709473,983.351013 1869.560913,990.419739 1871.677734,997.407898 
	C1873.820801,1004.482666 1873.895874,1004.323975 1881.419312,1004.120178 
	C1891.719238,1003.841370 1902.025146,1003.743774 1912.329102,1003.683228 
	C1914.553345,1003.670166 1916.780640,1004.144775 1920.649414,1004.579163 
	C1907.239624,1013.904663 1895.059937,1022.374756 1882.554688,1031.071167 
	C1887.564087,1045.675659 1892.436646,1059.881226 1897.309204,1074.086670 
	C1896.681885,1074.500000 1896.054565,1074.913330 1895.427124,1075.326782 
	C1886.293701,1068.364746 1877.160156,1061.402710 1867.429932,1053.976685 
z"/>
<path fill="#D30101" opacity="1.000000" stroke="none" 
	d="
M466.262421,1003.635681 
	C476.137054,1003.635681 485.088867,1003.635681 495.092987,1003.635681 
	C499.445831,989.565125 503.911499,975.129944 509.118866,958.297180 
	C516.019775,974.445801 518.287964,989.591125 523.970886,1003.939636 
	C539.194214,1003.939636 554.067444,1003.939636 568.940613,1003.939636 
	C569.151855,1004.403442 569.363098,1004.867249 569.574280,1005.331116 
	C557.320007,1013.936340 545.065735,1022.541504 532.600220,1031.295044 
	C537.648865,1045.875122 542.492554,1059.863281 547.336182,1073.851440 
	C546.766235,1074.336182 546.196289,1074.821045 545.626343,1075.305908 
	C533.733032,1066.324951 521.839722,1057.344116 509.527740,1048.046997 
	C497.114990,1057.393066 485.021454,1066.498779 472.927948,1075.604492 
	C472.378357,1075.203735 471.828796,1074.802979 471.279205,1074.402222 
	C476.273407,1060.135620 481.267609,1045.868896 486.454681,1031.051147 
	C474.136444,1022.486084 462.028259,1014.067017 449.920074,1005.647949 
	C450.143707,1004.977234 450.367310,1004.306458 450.590942,1003.635681 
	C455.507172,1003.635681 460.423370,1003.635681 466.262421,1003.635681 
z"/>
<path fill="#009628" opacity="1.000000" stroke="none" 
	d="
M2012.388062,1017.417419 
	C2006.394897,1013.377075 2000.999634,1009.733765 1995.604492,1006.090454 
	C1995.846069,1005.333557 1996.087524,1004.576599 1996.329102,1003.819702 
	C2007.511230,1003.819702 2018.699341,1003.593628 2029.873901,1003.886108 
	C2040.140747,1004.154785 2040.228760,1004.429321 2043.133301,994.804688 
	C2046.468140,983.753235 2049.613770,972.644653 2053.504883,959.283081 
	C2055.647949,963.078003 2057.011230,964.741516 2057.589600,966.643738 
	C2060.489502,976.180847 2063.145020,985.791992 2065.961914,995.354797 
	C2068.638916,1004.443176 2068.680420,1004.239990 2078.516357,1003.918640 
	C2088.487061,1003.592896 2098.471924,1003.668945 2108.450684,1003.670654 
	C2109.964844,1003.670898 2111.478760,1004.221924 2115.033691,1004.917542 
	C2101.596924,1014.223999 2089.718018,1022.451355 2077.513672,1030.904053 
	C2082.538818,1045.530762 2087.330566,1059.478271 2092.122314,1073.425781 
	C2091.529541,1073.854980 2090.936768,1074.284302 2090.343994,1074.713501 
	C2078.576904,1065.817261 2066.809814,1056.920898 2054.591064,1047.682983 
	C2042.431641,1056.866211 2030.602905,1065.799683 2016.901978,1076.147217 
	C2017.719849,1071.796997 2017.853638,1069.703247 2018.516235,1067.792725 
	C2021.891968,1058.057861 2025.484863,1048.398315 2028.844360,1038.658081 
	C2031.567505,1030.762695 2031.466187,1030.732422 2024.427612,1025.826172 
	C2020.608154,1023.163696 2016.799561,1020.485596 2012.388062,1017.417419 
z"/>
<path fill="#009628" opacity="1.000000" stroke="none" 
	d="
M699.624634,973.189331 
	C700.932861,968.751953 702.055481,965.059937 703.839661,959.192017 
	C705.854431,963.228821 707.087891,965.023254 707.684021,967.008972 
	C710.650391,976.889648 713.359802,986.847595 716.336487,996.725037 
	C718.539246,1004.034363 719.256226,1004.347839 726.975830,1004.153748 
	C736.627991,1003.911133 746.282715,1003.724609 755.937317,1003.659058 
	C758.426147,1003.642151 760.918701,1004.168945 765.525269,1004.681274 
	C751.884521,1014.127930 739.954895,1022.389526 727.534607,1030.990967 
	C732.520325,1045.458618 737.325256,1059.401489 742.130127,1073.344482 
	C741.586426,1073.722656 741.042664,1074.100952 740.498901,1074.479248 
	C728.921204,1065.732666 717.343506,1056.986084 705.026978,1047.681274 
	C692.793945,1056.775513 680.753967,1065.726318 668.713928,1074.677002 
	C668.091309,1074.187988 667.468689,1073.698975 666.846008,1073.210083 
	C671.697937,1059.249512 676.549805,1045.288940 681.700500,1030.468506 
	C669.610840,1022.151794 657.937500,1014.121338 646.264160,1006.090942 
	C660.951599,1002.842285 675.363586,1004.028259 690.213318,1003.892761 
	C693.398865,993.548340 696.418884,983.741455 699.624634,973.189331 
z"/>
<path fill="#2F1F1F" opacity="1.000000" stroke="none" 
	d="
M1241.400635,455.077972 
	C1235.866333,447.641693 1236.661377,445.149414 1244.133667,444.288025 
	C1244.463257,444.250031 1244.798828,444.269318 1245.130249,444.242889 
	C1268.305298,442.395264 1268.404053,442.489563 1276.414673,464.589752 
	C1278.058594,469.124969 1280.018066,473.545807 1282.708984,477.732056 
	C1283.692749,469.003937 1286.924316,460.299042 1278.815430,452.884216 
	C1275.011597,449.406097 1276.809448,445.174072 1282.115967,444.607788 
	C1287.366699,444.047455 1292.783813,444.038940 1298.023560,444.663910 
	C1303.389038,445.303925 1305.032593,449.464783 1301.059570,452.907959 
	C1295.748291,457.511017 1295.450073,463.156342 1295.421997,469.167206 
	C1295.355103,483.469604 1295.394653,497.772461 1295.371460,512.075134 
	C1295.367676,514.402222 1295.360962,516.736694 1295.183228,519.054565 
	C1294.865601,523.192993 1294.152466,526.980530 1288.947876,527.867310 
	C1282.951904,528.888916 1278.278687,527.575439 1276.199951,522.791992 
	C1272.494507,514.265381 1269.351074,505.493073 1266.027466,496.802460 
	C1264.090820,491.738464 1262.261108,486.633545 1259.089233,481.864471 
	C1258.720703,494.861725 1253.431641,507.974579 1262.021729,520.138855 
	C1264.143188,523.142883 1263.252686,526.737122 1259.702026,527.196106 
	C1253.517334,527.995544 1247.126465,527.982361 1240.905640,527.406311 
	C1237.535645,527.094238 1236.724487,523.106873 1239.025269,521.314636 
	C1247.238403,514.916504 1245.995117,506.070984 1246.110107,497.539337 
	C1246.235718,488.228088 1246.544189,478.882629 1245.898926,469.612885 
	C1245.568359,464.864563 1243.330566,460.249023 1241.400635,455.077972 
z"/>
<path fill="#2F1F1F" opacity="1.000000" stroke="none" 
	d="
M1136.708740,510.198120 
	C1130.213745,527.327820 1119.313110,533.095703 1102.672974,528.467834 
	C1097.815796,527.117004 1093.290405,525.593262 1088.094238,527.215942 
	C1083.779053,528.563538 1080.799561,526.271423 1080.523926,521.766052 
	C1080.179199,516.127991 1080.109497,510.433105 1080.538940,504.809967 
	C1080.685425,502.893921 1082.399902,500.031464 1083.953979,499.598785 
	C1085.414917,499.192108 1088.019897,501.049194 1089.390381,502.569458 
	C1091.814575,505.258698 1093.200928,509.030670 1095.910767,511.277039 
	C1099.117676,513.935547 1103.079712,516.042358 1107.057861,517.312561 
	C1111.208008,518.637634 1114.975220,516.854614 1117.059814,512.738403 
	C1119.041992,508.824310 1117.835083,504.242767 1113.377319,501.590332 
	C1107.669434,498.194092 1101.548706,495.491028 1095.603027,492.495239 
	C1087.993896,488.661407 1083.105347,482.660431 1081.343140,474.288788 
	C1077.593384,456.475433 1089.226929,442.712921 1107.945557,443.040039 
	C1114.250000,443.150177 1120.541382,443.976196 1126.840088,444.455994 
	C1130.147705,444.707916 1133.010376,446.035309 1133.257935,449.536987 
	C1133.631226,454.814514 1133.872437,460.223053 1133.114136,465.421906 
	C1132.459595,469.909668 1128.213013,470.628540 1124.929321,467.190735 
	C1123.565063,465.762451 1122.795410,463.740875 1121.366577,462.404846 
	C1118.720947,459.930664 1116.072754,457.211517 1112.915161,455.585968 
	C1107.039551,452.561157 1101.738403,454.419708 1099.406738,459.584808 
	C1097.217773,464.433685 1098.931274,469.057312 1104.273560,472.118317 
	C1105.981201,473.096893 1107.962646,473.599365 1109.821777,474.311981 
	C1113.241577,475.622864 1116.737671,476.763580 1120.071777,478.264313 
	C1134.341187,484.687042 1139.023315,493.426270 1136.708740,510.198120 
z"/>
<path fill="#2F1F1F" opacity="1.000000" stroke="none" 
	d="
M1318.613770,1022.632202 
	C1323.090942,1018.111389 1327.204346,1014.213013 1330.964722,1009.999573 
	C1334.933594,1005.552429 1336.559326,1000.173157 1335.528076,994.239441 
	C1334.586792,988.824402 1330.997925,985.367371 1325.987671,986.047119 
	C1323.072388,986.442566 1320.018066,988.410706 1317.908447,990.543701 
	C1317.286255,991.172729 1319.266113,995.109497 1320.759277,996.961243 
	C1325.609497,1002.976257 1325.744019,1007.694824 1320.709595,1011.366028 
	C1315.969238,1014.822815 1309.961670,1013.974976 1306.806885,1008.986084 
	C1302.863159,1002.749573 1301.715698,996.142944 1304.923950,989.041992 
	C1312.491089,972.292969 1335.364258,967.714722 1348.729370,980.382141 
	C1353.027710,984.456177 1355.624878,989.396301 1355.694458,995.367859 
	C1355.848877,1008.605835 1351.411377,1019.448303 1339.240112,1026.169312 
	C1334.192627,1028.956665 1329.241821,1031.918823 1324.246948,1034.801392 
	C1324.412842,1035.496460 1324.578735,1036.191406 1324.744507,1036.886475 
	C1327.811768,1037.627319 1330.870239,1038.406860 1333.947876,1039.101685 
	C1342.311279,1040.989746 1342.168579,1040.888184 1346.656006,1033.404175 
	C1347.647095,1031.751587 1350.201172,1029.875000 1351.799805,1030.066650 
	C1353.480835,1030.268066 1355.770874,1032.592529 1356.246582,1034.397339 
	C1358.301636,1042.195312 1357.511108,1049.858765 1351.620483,1055.822754 
	C1345.840576,1061.674561 1338.628418,1062.251831 1331.290649,1058.906128 
	C1324.843506,1055.966431 1318.973877,1052.841431 1311.985107,1058.581665 
	C1308.836914,1061.167480 1304.991455,1058.386475 1304.485229,1053.677979 
	C1303.558228,1045.055542 1305.788452,1037.128052 1311.155884,1030.277954 
	C1313.194702,1027.675781 1315.766113,1025.491089 1318.613770,1022.632202 
z"/>
<path fill="#2F1F1F" opacity="1.000000" stroke="none" 
	d="
M1218.087158,982.056519 
	C1235.827759,967.799072 1255.017822,972.999023 1262.231689,993.564636 
	C1267.590698,1008.841980 1267.311157,1024.525146 1262.843262,1039.812988 
	C1257.999878,1056.385010 1244.046875,1063.995483 1228.963867,1059.537598 
	C1219.456909,1056.727661 1213.923950,1049.945801 1211.014526,1040.921631 
	C1204.444092,1020.541504 1205.233398,1000.897705 1218.087158,982.056519 
M1228.197876,1020.813965 
	C1229.072754,1028.363647 1229.543579,1035.996948 1231.073975,1043.411255 
	C1231.521851,1045.580933 1235.044678,1048.631592 1237.047852,1048.550659 
	C1239.176758,1048.464722 1241.432373,1045.338379 1243.126343,1043.148071 
	C1244.035400,1041.972656 1244.107056,1039.983643 1244.170288,1038.346680 
	C1244.630371,1026.438843 1245.229614,1014.527832 1245.257202,1002.616638 
	C1245.266968,998.381226 1244.304199,993.959106 1242.821411,989.981567 
	C1242.065430,987.953308 1239.227051,985.545959 1237.235596,985.458679 
	C1235.246704,985.371460 1232.121094,987.535645 1231.300171,989.476685 
	C1229.656860,993.362305 1228.804810,997.730957 1228.436279,1001.970581 
	C1227.949219,1007.575989 1228.239502,1013.248901 1228.197876,1020.813965 
z"/>
<path fill="#2F1F1F" opacity="1.000000" stroke="none" 
	d="
M1153.905029,1025.847412 
	C1148.502075,1029.100342 1143.716919,1031.984131 1137.399414,1035.791382 
	C1145.101440,1039.038452 1151.151611,1040.478027 1157.964844,1040.307007 
	C1159.179932,1037.339966 1159.965942,1034.420654 1161.483765,1031.951294 
	C1163.710938,1028.327637 1169.184570,1028.473511 1170.226196,1032.271484 
	C1172.335571,1039.961182 1171.173218,1047.544922 1166.951416,1054.348877 
	C1163.574097,1059.791870 1157.910278,1060.979614 1152.053711,1060.544922 
	C1149.161743,1060.330078 1146.220947,1059.199829 1143.546509,1057.957886 
	C1138.211670,1055.480469 1133.530762,1053.934326 1127.707275,1057.890015 
	C1122.559326,1061.386719 1118.745361,1058.847534 1118.411133,1052.497803 
	C1117.936890,1043.488159 1120.709351,1035.316162 1126.800171,1028.639771 
	C1131.054199,1023.976807 1135.919678,1019.872925 1140.495361,1015.501892 
	C1145.708374,1010.522095 1149.581665,1004.740662 1149.912109,997.330627 
	C1150.301514,988.603455 1142.706909,983.261536 1135.261597,986.773254 
	C1131.214600,988.682129 1130.424561,991.817932 1133.161377,995.528748 
	C1133.942993,996.588440 1135.180054,997.321350 1135.918335,998.402161 
	C1139.117310,1003.085693 1138.378052,1008.961609 1134.347046,1011.753479 
	C1129.746460,1014.939880 1124.072632,1013.401794 1120.687134,1008.050598 
	C1116.053223,1000.726379 1117.915649,987.639832 1124.513794,981.159790 
	C1134.268433,971.580017 1149.047729,970.412842 1160.296265,978.278748 
	C1165.850098,982.162598 1169.163208,987.587646 1169.505127,994.165649 
	C1170.180542,1007.155029 1167.287476,1018.765564 1153.905029,1025.847412 
z"/>
<path fill="#2F1F1F" opacity="1.000000" stroke="none" 
	d="
M1420.287109,1021.611694 
	C1416.970215,1016.769958 1418.926147,1013.755066 1422.277222,1010.785339 
	C1427.875610,1005.824097 1428.984619,999.565002 1426.789429,992.580933 
	C1425.487793,988.439819 1422.949341,985.413818 1418.472412,984.993835 
	C1413.494995,984.527100 1409.296753,985.916260 1407.398926,991.891174 
	C1409.094238,993.763489 1410.889160,995.632446 1412.554077,997.610779 
	C1415.167969,1000.716858 1415.826782,1004.087341 1413.575073,1007.710876 
	C1411.364136,1011.268921 1407.770386,1012.773682 1404.137939,1011.666077 
	C1401.344360,1010.814148 1397.925049,1008.612122 1396.850464,1006.119507 
	C1392.388306,995.769836 1396.735962,982.931396 1406.450806,977.459473 
	C1415.324219,972.461426 1424.895630,971.729858 1434.304565,975.935425 
	C1446.317749,981.305237 1451.090820,994.145874 1445.200928,1007.124756 
	C1442.629395,1012.791565 1442.087036,1016.779236 1445.232788,1022.580200 
	C1451.593628,1034.309937 1448.074341,1049.901123 1438.954224,1056.091553 
	C1427.966675,1063.549561 1410.035889,1062.234741 1400.796265,1053.293579 
	C1396.084839,1048.734375 1393.827515,1034.819824 1396.958618,1028.844727 
	C1399.119385,1024.721069 1402.866699,1023.733643 1407.150513,1024.375366 
	C1411.927734,1025.090942 1414.070557,1028.250610 1413.825317,1032.795166 
	C1413.685669,1035.385742 1412.634399,1037.922974 1412.032471,1040.493530 
	C1410.934326,1045.184204 1412.519653,1047.412598 1417.190308,1047.795044 
	C1422.759155,1048.251221 1426.808350,1045.177002 1427.726440,1039.515015 
	C1428.880981,1032.396362 1427.234009,1026.286621 1420.287109,1021.611694 
z"/>
<path fill="#2F1F1F" opacity="1.000000" stroke="none" 
	d="
M1459.945557,529.346008 
	C1451.997559,529.138123 1444.984009,529.250000 1438.055298,528.536621 
	C1435.920898,528.316956 1433.323853,526.209045 1432.298218,524.252869 
	C1431.772705,523.250671 1433.821777,520.060486 1435.450562,518.934204 
	C1439.290894,516.279053 1440.067993,512.669067 1440.065918,508.519043 
	C1440.058594,493.870300 1440.052124,479.221558 1440.053467,464.572815 
	C1440.053955,460.037842 1439.063232,456.197327 1434.796875,453.447784 
	C1433.281250,452.471039 1431.792725,449.299408 1432.318359,447.880310 
	C1432.909790,446.283447 1435.769897,444.605255 1437.677124,444.564941 
	C1451.316650,444.276611 1464.965088,444.337524 1478.609863,444.426239 
	C1482.369385,444.450653 1485.243164,446.386261 1485.412720,450.322479 
	C1485.698486,456.956238 1485.744385,463.634003 1485.247559,470.244812 
	C1485.118164,471.965393 1482.606201,473.506866 1481.188599,475.130615 
	C1479.622192,473.678864 1477.493408,472.502594 1476.616577,470.712982 
	C1475.180054,467.780823 1474.950806,464.253418 1473.494019,461.335754 
	C1471.559204,457.460480 1468.106934,455.379364 1463.595581,456.310608 
	C1459.145264,457.229279 1458.349854,460.799957 1457.995239,464.663849 
	C1457.220459,473.105927 1458.255127,474.538483 1466.335205,478.872772 
	C1468.259399,479.905029 1470.083008,482.628510 1470.327393,484.760437 
	C1470.490356,486.182129 1468.061890,488.721619 1466.285400,489.370422 
	C1462.823486,490.634705 1458.397827,490.889069 1458.430542,495.564941 
	C1458.475830,502.060028 1458.405029,508.921204 1460.456177,514.916687 
	C1461.983521,519.380737 1469.933716,518.418945 1472.924316,513.617859 
	C1474.623901,510.889099 1474.865967,507.289185 1476.328979,504.363861 
	C1477.379761,502.262421 1479.213379,499.258453 1480.963257,499.065552 
	C1484.797852,498.642853 1485.432373,502.268250 1485.628784,505.341064 
	C1485.840820,508.658936 1485.855591,511.995300 1485.819092,515.322083 
	C1485.686401,527.397705 1484.327637,528.768005 1471.898071,529.259155 
	C1468.240723,529.403687 1464.574707,529.324585 1459.945557,529.346008 
z"/>
<path fill="#2F1F1F" opacity="1.000000" stroke="none" 
	d="
M1385.184570,525.530273 
	C1375.512573,531.451111 1365.979858,530.627869 1356.666382,527.282776 
	C1353.135864,526.014771 1349.779541,523.236694 1347.279175,520.339478 
	C1342.108643,514.347900 1340.021729,506.942657 1339.904785,499.076111 
	C1339.776245,490.428040 1339.604492,481.767670 1339.908325,473.128662 
	C1340.655151,451.888245 1356.500977,439.991547 1377.081299,444.749237 
	C1380.203369,445.470978 1383.615845,445.264008 1386.864136,445.045044 
	C1393.880127,444.572052 1395.680908,445.536560 1395.956299,452.102722 
	C1396.318481,460.735748 1396.103882,469.397339 1395.983887,478.044525 
	C1395.919556,482.688660 1393.742310,485.625488 1388.712158,485.639923 
	C1384.089844,485.653168 1381.091187,483.630585 1380.429688,478.825104 
	C1380.157593,476.848541 1380.225708,474.784088 1379.673706,472.895569 
	C1378.469116,468.773163 1377.455811,464.473785 1375.442871,460.744019 
	C1373.573608,457.280731 1370.573730,453.922028 1365.863159,455.139496 
	C1361.224854,456.338318 1360.120972,460.341980 1360.103149,464.562836 
	C1360.044434,478.535278 1360.083130,492.508301 1360.135254,506.480896 
	C1360.140137,507.794617 1360.385742,509.138306 1360.722900,510.414337 
	C1361.923096,514.958496 1364.491333,518.395996 1369.451660,518.756897 
	C1374.488647,519.123413 1377.382202,515.907959 1379.078369,511.555847 
	C1379.674194,510.027222 1379.753052,508.305573 1380.200928,506.709351 
	C1381.801514,501.003754 1384.833374,499.105408 1390.393677,500.248199 
	C1394.968262,501.188416 1396.608765,504.305481 1395.376831,510.364166 
	C1394.132080,516.485352 1390.788208,521.343994 1385.184570,525.530273 
z"/>
<path fill="#2F1F1F" opacity="1.000000" stroke="none" 
	d="
M1186.188232,444.177124 
	C1190.747681,444.281891 1194.451172,444.035645 1198.035522,444.577637 
	C1203.326050,445.377563 1205.446899,449.360382 1201.939453,452.901276 
	C1196.001831,458.895294 1196.204346,465.977600 1196.196045,473.284668 
	C1196.184204,483.584259 1196.211304,493.883911 1196.209717,504.183533 
	C1196.208862,509.916779 1196.906616,515.166931 1201.107666,519.863403 
	C1204.802734,523.994324 1203.280518,527.363403 1197.674927,527.792419 
	C1191.078613,528.297241 1184.374634,528.263977 1177.783936,527.693848 
	C1172.795166,527.262207 1171.234253,523.763000 1174.591064,520.206543 
	C1179.729858,514.762329 1180.136353,508.411346 1180.132080,501.703400 
	C1180.124878,490.739410 1180.183228,479.774506 1180.054199,468.811859 
	C1179.991333,463.469788 1179.209229,458.514709 1175.289429,454.076874 
	C1170.498169,448.652313 1172.062744,445.445496 1179.307983,444.380920 
	C1181.265991,444.093262 1183.286987,444.234375 1186.188232,444.177124 
z"/>
<path fill="#000000" opacity="1.000000" stroke="none" 
	d="
M1146.046143,704.599121 
	C1146.386353,708.985596 1146.841431,712.586487 1146.915649,716.195129 
	C1147.012573,720.901794 1146.019531,725.221069 1141.508057,727.947144 
	C1136.941040,721.329773 1136.812134,704.311890 1141.076660,696.462952 
	C1145.488159,697.057129 1145.369263,700.690186 1146.046143,704.599121 
z"/>
<path fill="#000000" opacity="1.000000" stroke="none" 
	d="
M2048.152100,727.192871 
	C2045.035522,716.872864 2046.098511,706.925049 2047.042603,695.376892 
	C2049.883301,697.289673 2052.166016,697.964661 2052.640869,699.288330 
	C2055.474609,707.186707 2056.267578,715.363708 2053.467773,723.416809 
	C2052.872314,725.129700 2050.339111,726.168945 2048.152100,727.192871 
z"/>
<path fill="#000000" opacity="1.000000" stroke="none" 
	d="
M1901.839111,767.996216 
	C1901.830688,777.303589 1902.010864,785.618652 1901.723145,793.917542 
	C1901.606323,797.289795 1900.472046,800.626770 1899.401978,805.971802 
	C1896.748535,802.941650 1895.141113,801.800110 1894.568237,800.270935 
	C1893.896729,798.478394 1893.985840,796.348755 1893.984253,794.365173 
	C1893.959473,764.121948 1893.932129,733.878540 1894.037109,703.635620 
	C1894.048828,700.227722 1893.195923,696.179688 1897.857666,693.951721 
	C1902.850586,696.426331 1901.733521,701.179504 1901.760498,705.181885 
	C1901.899658,725.786316 1901.833740,746.392090 1901.839111,767.996216 
z"/>
<path fill="#000000" opacity="1.000000" stroke="none" 
	d="
M1598.302856,765.234619 
	C1598.953491,760.291138 1599.540527,756.119080 1600.481934,749.429260 
	C1602.323242,753.147522 1603.493652,754.580322 1603.730347,756.153625 
	C1604.660034,762.333923 1605.543457,768.541199 1605.976807,774.770935 
	C1606.504272,782.354675 1604.957886,785.122742 1601.059814,784.333008 
	C1595.248657,783.155640 1596.885132,778.700195 1597.326660,774.850708 
	C1597.664429,771.906372 1597.937500,768.954529 1598.302856,765.234619 
z"/>
<path fill="#000000" opacity="1.000000" stroke="none" 
	d="
M809.705566,755.136963 
	C810.369995,753.415039 810.894653,752.339355 812.104126,749.859314 
	C815.746033,760.322815 816.333191,769.757263 817.045715,779.127380 
	C817.317139,782.696960 815.006226,784.655212 811.432434,784.534912 
	C807.584473,784.405396 806.227783,781.698486 806.579224,778.411621 
	C807.387878,770.848816 808.548157,763.323608 809.705566,755.136963 
z"/>
<path fill="#000000" opacity="1.000000" stroke="none" 
	d="
M1228.196777,1019.853394 
	C1228.239502,1013.248901 1227.949219,1007.575989 1228.436279,1001.970581 
	C1228.804810,997.730957 1229.656860,993.362305 1231.300171,989.476685 
	C1232.121094,987.535645 1235.246704,985.371460 1237.235596,985.458679 
	C1239.227051,985.545959 1242.065430,987.953308 1242.821411,989.981567 
	C1244.304199,993.959106 1245.266968,998.381226 1245.257202,1002.616638 
	C1245.229614,1014.527832 1244.630371,1026.438843 1244.170288,1038.346680 
	C1244.107056,1039.983643 1244.035400,1041.972656 1243.126343,1043.148071 
	C1241.432373,1045.338379 1239.176758,1048.464722 1237.047852,1048.550659 
	C1235.044678,1048.631592 1231.521851,1045.580933 1231.073975,1043.411255 
	C1229.543579,1035.996948 1229.072754,1028.363647 1228.196777,1019.853394 
z"/>
</svg>